<svg width="48" height="52" viewBox="0 0 48 52" fill="none" xmlns="http://www.w3.org/2000/svg">
<path d="M26.9011 49.2788C26.9011 49.4024 26.9156 49.5183 26.9445 49.6261C26.9761 49.7314 27.0208 49.8235 27.0787 49.9024C27.1367 49.9787 27.209 50.0393 27.2959 50.084C27.3827 50.1287 27.4814 50.1511 27.5919 50.1511C27.6865 50.1522 27.7803 50.1347 27.8682 50.0998C27.9524 50.063 28.0261 50.0103 28.0893 49.9419C28.1524 49.8735 28.2011 49.7906 28.2353 49.6932C28.2721 49.5933 28.2906 49.4788 28.2906 49.3498C28.2966 49.2292 28.286 49.1083 28.259 48.9906C28.2326 48.8774 28.1906 48.7787 28.1327 48.6945C28.0754 48.6109 27.998 48.5431 27.9077 48.4972C27.8182 48.4471 27.713 48.4222 27.5919 48.4222C27.4901 48.4207 27.3896 48.4451 27.2998 48.4932C27.2148 48.5386 27.1407 48.6019 27.0827 48.6787C27.0219 48.7607 26.9765 48.853 26.9485 48.9511C26.9169 49.0537 26.9011 49.163 26.9011 49.2788ZM26.9011 50.309H26.6643V47.4669H26.9011V48.5919C26.9774 48.4656 27.0814 48.3709 27.213 48.3077C27.3429 48.2429 27.4862 48.2091 27.6314 48.209C27.7866 48.209 27.9208 48.2393 28.034 48.2998C28.1463 48.3549 28.2438 48.4361 28.3182 48.5366C28.3969 48.6388 28.4546 48.7555 28.488 48.8801C28.5247 49.0116 28.5432 49.1485 28.5432 49.2906C28.5432 49.4406 28.5262 49.5814 28.4919 49.713C28.4576 49.8445 28.4024 49.959 28.3261 50.0564C28.2504 50.1527 28.153 50.2298 28.0419 50.2814C27.9262 50.3366 27.7853 50.3643 27.6195 50.3643C27.5537 50.3643 27.4866 50.3551 27.4182 50.3366C27.3485 50.3177 27.281 50.2912 27.2169 50.2577C27.1529 50.2229 27.0932 50.1804 27.0393 50.1314C26.9864 50.0783 26.9424 50.017 26.909 49.9498H26.9011V50.309ZM29.034 50.8656L29.1287 50.8814C29.163 50.8866 29.1971 50.8893 29.2313 50.8893C29.2972 50.8893 29.351 50.8683 29.3932 50.8261C29.4353 50.784 29.4694 50.7326 29.4958 50.6722C29.5253 50.6127 29.5491 50.5506 29.5669 50.4866C29.5853 50.4235 29.6063 50.3695 29.63 50.3248L28.8366 48.2643H29.1011L29.7563 50.0209L30.4116 48.2643H30.6682L29.9063 50.2814C29.859 50.4104 29.8129 50.5261 29.7682 50.6287C29.726 50.7314 29.6801 50.8182 29.63 50.8893C29.5826 50.963 29.5286 51.0183 29.4682 51.0551C29.4102 51.0945 29.3406 51.1143 29.259 51.1143C29.2168 51.1143 29.1761 51.1116 29.1366 51.1064C29.1021 51.1016 29.0678 51.095 29.034 51.0866V50.8656ZM34.3879 49.9301H34.3957L35.0155 47.4669H35.2918L34.5457 50.309H34.2497L33.5905 47.7985H33.5826L32.9234 50.309H32.6273L31.8931 47.4669H32.1615L32.7734 49.9301H32.7813L33.4405 47.4669H33.7405L34.3879 49.9301ZM35.6655 50.309V47.4669H37.5563V47.6959H35.934V48.7222H37.3984V48.9511H35.934V50.0801H37.5958V50.309H35.6655ZM38.0668 50.309V47.4669H38.4773L39.4089 49.9735H39.4168L40.3326 47.4669H40.7392V50.309H40.4707V47.7748H40.4629L39.5313 50.309H39.2786L38.3431 47.7748H38.3352V50.309H38.0668ZM41.1063 50.309L42.2234 47.4669H42.5273L43.6168 50.309H43.3405L43.0129 49.4169H41.7181L41.3826 50.309H41.1063ZM41.8089 49.188H42.9221L42.3655 47.6959L41.8089 49.188ZM9.48217 43.1013H6.79606L6.38506 43.9932H4.42069V43.7376L7.71817 36.7369H8.58011L11.8424 43.7376V43.9932H9.90311L9.48217 43.1013ZM8.13911 39.7937L7.39748 41.5277H8.8858L8.13911 39.7937ZM18.3582 36.807V42.3094H20.9592V43.9932H16.484V36.807H18.3582ZM30.9505 43.1013H28.2645L27.8535 43.9932H25.8892V43.7376L29.1866 36.7369H30.0486L33.3109 43.7376V43.9932H31.3714L30.9505 43.1013ZM29.6076 39.7937L28.8658 41.5277H30.3543L29.6076 39.7937ZM39.7755 38.4506H38.0115V36.807H43.3485V38.4506H41.5946V43.9932H39.7755V38.4506ZM0.947009 31.8421H24.7935C25.263 31.8421 25.5683 31.3481 25.3585 30.9281L24.8681 29.9474L23.8417 28.1316L23.7889 28.0435C23.7327 27.95 23.6534 27.8726 23.5585 27.8188C23.4635 27.7651 23.3563 27.7369 23.2473 27.7369H8.1309C7.64238 27.7369 7.33875 27.2059 7.5868 26.7848L17.4592 10.0228C17.7026 9.6096 18.2998 9.60771 18.5456 10.0195L31.3948 31.5344C31.4508 31.6282 31.5302 31.7059 31.6253 31.7598C31.7203 31.8138 31.8277 31.8421 31.937 31.8421H46.5898C47.076 31.8421 47.3799 31.3157 47.1367 30.8948L29.6294 0.578973C29.5739 0.482963 29.4942 0.403236 29.3982 0.347804C29.3022 0.292371 29.1933 0.263186 29.0824 0.263184H25.9432C25.4613 0.263184 25.1569 0.781236 25.3916 1.20234L39.6603 26.7977C39.8951 27.2188 39.5906 27.7369 39.1087 27.7369H34.3888C34.2784 27.7369 34.1699 27.7079 34.0742 27.6529C33.9784 27.5979 33.8988 27.5187 33.8433 27.4233L18.656 1.36623C18.6005 1.27081 18.5208 1.19164 18.4251 1.13661C18.3294 1.08159 18.2209 1.05264 18.1105 1.05266H18.047C17.9365 1.05266 17.828 1.08165 17.7322 1.13673C17.6364 1.19181 17.5567 1.27106 17.5012 1.36655L0.401166 30.7474C0.344984 30.8439 0.315399 30.9535 0.31543 31.0651V31.2105C0.31543 31.378 0.38197 31.5387 0.500414 31.6571C0.618858 31.7756 0.779503 31.8421 0.947009 31.8421Z" fill="#333333"/>
</svg>
