<svg width="100" height="26" viewBox="0 0 100 26" fill="none" xmlns="http://www.w3.org/2000/svg">
<g clip-path="url(#clip0)">
<path fill-rule="evenodd" clip-rule="evenodd" d="M27.8682 22.0838L30.3146 0.948364H34.4009L33.3659 9.74424C33.9842 8.9536 34.6585 8.33473 35.3888 7.88764C36.1191 7.44055 36.8921 7.21701 37.7075 7.21701C38.2812 7.21701 38.8053 7.32289 39.2803 7.53469C39.7552 7.74647 40.1651 8.07825 40.5102 8.53004C40.8551 8.98184 41.124 9.55834 41.3166 10.2596C41.5094 10.9608 41.6057 11.7961 41.6057 12.7656C41.6057 14.0457 41.4198 15.2622 41.0478 16.4153C40.6759 17.5683 40.1763 18.5824 39.549 19.4578C38.9219 20.3331 38.1982 21.0274 37.3783 21.5403C36.5584 22.0533 35.7003 22.3098 34.8041 22.3098C34.1141 22.3098 33.507 22.1709 32.9829 21.8932C32.4585 21.6156 32.0128 21.2509 31.6453 20.7991L31.605 20.9403C31.3882 21.6233 30.7809 22.0838 30.0969 22.0838H27.8682ZM36.0407 10.5349C35.7451 10.5349 35.4382 10.6525 35.12 10.8878C34.802 11.1231 34.495 11.4455 34.1992 11.855C33.9036 12.2644 33.6281 12.7444 33.3726 13.2951C33.1171 13.8457 32.9045 14.4316 32.7341 15.0528L32.3308 18.4695C32.5908 18.6954 32.8821 18.8554 33.2046 18.9495C33.5273 19.0436 33.8364 19.0907 34.132 19.0907C34.6161 19.0907 35.0618 18.9212 35.4696 18.5824C35.8772 18.2436 36.229 17.7989 36.5248 17.2483C36.8204 16.6976 37.0511 16.0694 37.217 15.3634C37.3826 14.6575 37.4656 13.9375 37.4656 13.2033C37.4656 12.2715 37.3357 11.5938 37.0758 11.1702C36.8158 10.7467 36.4709 10.5349 36.0407 10.5349ZM54.1334 22.0838H52.5683C51.4476 22.0838 50.5389 21.1273 50.5389 19.9473C50.5389 19.8496 50.5452 19.7521 50.5579 19.6555C49.9844 20.4838 49.3481 21.1333 48.6492 21.6039C47.9501 22.0745 47.1795 22.3098 46.3372 22.3098C45.8353 22.3098 45.3514 22.2039 44.8854 21.9921C44.4194 21.7803 44.0073 21.4603 43.6488 21.032C43.2904 20.6037 43.0036 20.0579 42.7886 19.3943C42.5734 18.7307 42.4659 17.9471 42.4659 17.0435C42.4659 15.7164 42.6966 14.4575 43.1581 13.2668C43.6197 12.0761 44.265 11.0337 45.0937 10.1396C45.9227 9.24538 46.9062 8.53475 48.0443 8.00766C49.1824 7.48055 50.4323 7.21701 51.7945 7.21701C52.4576 7.21701 53.1297 7.26407 53.8107 7.3582C54.4919 7.45232 55.1638 7.62175 55.8271 7.86647L54.1334 22.0838ZM48.004 18.8508C48.3086 18.8508 48.6044 18.7307 48.8911 18.4907C49.1779 18.2506 49.4489 17.9236 49.7044 17.5094C49.9597 17.0953 50.1949 16.6106 50.4099 16.0552C50.6251 15.4999 50.8089 14.9069 50.9612 14.2763L51.445 10.2243H51.2031C50.5219 10.2243 49.9015 10.3843 49.3414 10.7043C48.7813 11.0243 48.2997 11.4596 47.8965 12.0103C47.4932 12.5609 47.1817 13.2009 46.9622 13.9304C46.7426 14.6599 46.633 15.4387 46.633 16.267C46.633 16.7376 46.6687 17.1377 46.7405 17.4671C46.812 17.7965 46.9085 18.0624 47.0294 18.2648C47.1504 18.4672 47.2937 18.6155 47.4596 18.7096C47.6253 18.8037 47.8068 18.8508 48.004 18.8508ZM56.7679 22.0838L58.4616 7.44291H59.3719C60.8206 7.44291 61.995 8.67935 61.995 10.2046C61.995 10.2913 61.991 10.378 61.9833 10.4643C62.521 9.46657 63.1035 8.69947 63.7308 8.16295C64.3581 7.62645 65.0077 7.3582 65.6798 7.3582C66.0562 7.3582 66.428 7.44761 66.7955 7.62645L66.0428 11.6785C65.5857 11.4714 65.1511 11.3679 64.7388 11.3679C64.0488 11.3679 63.4374 11.695 62.9042 12.3491C62.371 13.0033 61.9386 14.0551 61.6069 15.5046L60.8542 22.0838H56.7679ZM68.1934 18.9212V18.6813C68.1934 18.5872 68.2001 18.453 68.2135 18.2789C68.227 18.1048 68.2495 17.8742 68.2807 17.5871C68.3121 17.3 68.3548 16.9212 68.4085 16.4506L69.1209 10.4643H68.0052C67.835 10.4643 67.6917 10.4055 67.5751 10.2878C67.4586 10.1701 67.4004 9.99367 67.4004 9.75836C67.4004 9.74894 67.4093 9.66659 67.4272 9.51128C67.4452 9.35597 67.4631 9.19125 67.481 9.01713C67.4989 8.843 67.5168 8.68063 67.5349 8.53004C67.5527 8.37944 67.5616 8.29473 67.5616 8.27591L67.6606 7.47114L69.7124 7.44291L70.079 4.86639C70.216 3.90472 71.0005 3.19322 71.9243 3.19322H74.054L73.5432 7.47114H76.6618L76.6345 7.70491C76.4504 9.28049 75.1793 10.4643 73.6715 10.4643H73.1938L72.5217 16.2105C72.4768 16.5965 72.4432 16.9 72.4208 17.1212C72.3984 17.3424 72.3805 17.5118 72.3672 17.6295C72.3579 17.7094 72.3489 17.7894 72.3402 17.8695C72.3357 17.9118 72.3336 17.9377 72.3336 17.9471C72.3336 18.2201 72.3939 18.4484 72.515 18.6319C72.6358 18.8155 72.8263 18.9072 73.0863 18.9072C73.2296 18.9072 73.3483 18.8907 73.4424 18.8578C73.5051 18.8359 73.727 18.744 74.1079 18.5824L75.4789 21.039C74.9233 21.4627 74.3274 21.7803 73.691 21.9921C73.0548 22.2039 72.4141 22.3098 71.7689 22.3098C71.2312 22.3098 70.7474 22.232 70.3172 22.0768C69.8871 21.9215 69.5175 21.6956 69.2083 21.3991C68.8992 21.1026 68.6572 20.7473 68.4823 20.3331C68.3076 19.919 68.2113 19.4484 68.1934 18.9212ZM88.9743 11.0431C88.9743 11.7114 88.8489 12.3232 88.5979 12.8786C88.3471 13.4339 87.9103 13.9257 87.2874 14.354C86.6646 14.7822 85.8268 15.1469 84.7738 15.4481C83.7208 15.7493 82.397 15.9846 80.8017 16.1541C80.8196 17.1518 81.0281 17.8812 81.4269 18.3425C81.8256 18.8037 82.4148 19.0342 83.1945 19.0342C83.5618 19.0342 83.88 19.0013 84.1488 18.9355C84.4177 18.8695 84.6528 18.7848 84.8544 18.6813C86.0628 18.0609 87.5075 18.2715 88.5101 19.2147L88.6787 19.3732C88.1858 19.8813 87.7041 20.3215 87.2336 20.6932C86.7631 21.0649 86.2792 21.3708 85.782 21.6109C85.2846 21.8509 84.7559 22.0274 84.1958 22.1404C83.6357 22.2533 83.0241 22.3098 82.361 22.3098C81.5366 22.3098 80.7793 22.1616 80.0893 21.8651C79.3993 21.5686 78.8057 21.1498 78.3083 20.6085C77.8109 20.0673 77.4257 19.4155 77.1523 18.653C76.879 17.8907 76.7424 17.0435 76.7424 16.1117C76.7424 15.3305 76.8253 14.5681 76.991 13.8245C77.1568 13.0809 77.3943 12.3821 77.7034 11.7279C78.0125 11.0737 78.3913 10.4714 78.8393 9.92072C79.2873 9.37009 79.7914 8.89712 80.3515 8.50181C80.9116 8.10648 81.5253 7.79823 82.193 7.57704C82.8606 7.35585 83.5708 7.24526 84.3236 7.24526C85.0672 7.24526 85.7282 7.3582 86.3062 7.5841C86.8842 7.81 87.3704 8.10413 87.7646 8.46651C88.1589 8.82888 88.4592 9.23597 88.6651 9.68777C88.8713 10.1396 88.9743 10.5914 88.9743 11.0431ZM84.0816 10.196C83.3916 10.196 82.7867 10.4855 82.2669 11.0643C81.7472 11.6432 81.3573 12.4362 81.0975 13.4433C81.9668 13.3021 82.6701 13.1539 83.2078 12.9986C83.7456 12.8433 84.1622 12.6738 84.458 12.4903C84.7536 12.3068 84.953 12.1091 85.056 11.8973C85.1592 11.6855 85.2107 11.4573 85.2107 11.2126C85.2107 10.9678 85.1211 10.7372 84.9418 10.5208C84.7626 10.3043 84.4759 10.196 84.0816 10.196ZM89.6733 22.0838L91.367 7.44291H92.0188C93.6039 7.44291 94.8887 8.79563 94.8887 10.4643C95.4264 9.46657 96.0089 8.69947 96.6361 8.16295C97.2634 7.62645 97.9131 7.3582 98.5852 7.3582C98.9616 7.3582 99.3334 7.44761 99.7008 7.62645L98.9481 11.6785C98.4911 11.4714 98.0566 11.3679 97.6443 11.3679C96.9542 11.3679 96.3426 11.695 95.8094 12.3491C95.2762 13.0033 94.8439 14.0551 94.5123 15.5046L93.7596 22.0838H89.6733Z" fill="#333333"/>
<path d="M17.2888 11.3937C20.5482 8.79387 27.253 -0.4981 16.7766 1.13883C12.2135 1.81285 6.55681 5.75202 5.20651 10.6628C4.50204 9.34965 3.72469 8.07971 2.87838 6.85935C1.62121 5.17428 -0.870547 6.81993 0.526316 8.55314C4.48413 13.5121 7.2313 19.482 7.2313 25.5002C7.55724 22.5152 8.09338 18.5104 6.88276 14.9477C7.32576 15.263 7.35784 15.2867 7.66621 15.6712C9.80808 19.0414 13.0982 21.8411 16.7766 23.1892C20.1292 24.4892 24.599 23.7188 22.7832 18.5192C21.8053 15.6786 19.5237 13.1751 17.2888 11.3937Z" fill="#333333"/>
</g>
<defs>
<clipPath id="clip0">
<rect width="99.7359" height="24.6794" fill="white" transform="translate(0 0.874878)"/>
</clipPath>
</defs>
</svg>
