<svg width="140" height="25" viewBox="0 0 140 25" fill="none" xmlns="http://www.w3.org/2000/svg">
<g clip-path="url(#clip0)">
<path d="M54.8057 2.24849C54.8057 1.00799 55.7491 0.00463867 56.9105 0.00463867C58.0758 0.00463867 59.023 1.00799 59.023 2.24849C59.023 3.48738 58.0758 4.49179 56.9105 4.49179C55.7491 4.49179 54.8057 3.48738 54.8057 2.24849Z" fill="#333333"/>
<path d="M88.0791 17.1729C88.0791 15.9319 89.0221 14.9275 90.1835 14.9275C91.3484 14.9275 92.2954 15.9319 92.2954 17.1729C92.2954 18.4108 91.3484 19.4162 90.1835 19.4162C89.0221 19.4162 88.0791 18.4108 88.0791 17.1729Z" fill="#333333"/>
<path d="M20.1955 16.2039C18.3793 16.2039 17.1172 14.6731 17.1172 12.4856C17.1172 10.2987 18.3793 8.7689 20.1955 8.7689C22.0222 8.7689 23.2983 10.2987 23.2983 12.4856C23.2983 14.7077 22.0488 16.2039 20.1955 16.2039ZM20.1955 5.50098C16.3531 5.50098 13.5645 8.43924 13.5645 12.4856C13.5645 16.532 16.3531 19.4697 20.1955 19.4697C24.0524 19.4697 26.8526 16.532 26.8526 12.4856C26.8526 8.43924 24.0524 5.50098 20.1955 5.50098Z" fill="#333333"/>
<path d="M50.7209 12.8344C50.5716 12.5361 50.4003 12.2836 50.2179 12.0831L50.1018 11.9523L50.224 11.8279C50.4003 11.6306 50.5807 11.3967 50.7546 11.1255L54.1454 5.7759H50.0291L47.4813 9.9605C47.3371 10.1849 47.0459 10.2982 46.61 10.2982H46.0293V2.38673C46.0293 0.804335 45.1004 0.588989 44.0969 0.588989H42.3789L42.3818 19.2634H46.0293V13.6618H46.371C46.7868 13.6618 47.07 13.7128 47.1998 13.9526L49.2119 17.9831C49.774 19.0768 50.3341 19.2634 51.3878 19.2634H54.183L52.1013 15.6089L50.7209 12.8344" fill="#333333"/>
<path d="M68.4293 5.4707C66.574 5.4707 65.3902 6.34537 64.7268 7.08499L64.5053 7.32268L64.4272 6.9994C64.2323 6.20713 63.5754 5.77112 62.5869 5.77112H60.9521L60.9624 19.2587H64.5851V13.0424C64.5851 12.4346 64.6595 11.9071 64.8109 11.4259C65.2142 9.96956 66.339 9.06405 67.7449 9.06405C68.8757 9.06405 69.3177 9.69733 69.3177 11.334V17.2084C69.3177 18.6052 69.9264 19.2587 71.2436 19.2587H72.9676L72.9617 10.6805C72.9617 7.27217 71.3954 5.4707 68.4303 5.4707" fill="#333333"/>
<path d="M56.9583 5.77734H55.2412L55.2529 16.2059H55.2518V19.2622H57.0847C57.1077 19.2622 57.1262 19.2649 57.1493 19.2649L58.003 19.2622H58.8527V19.2569H58.8586L58.866 7.825C58.866 6.44572 58.2446 5.77736 56.9596 5.77736" fill="#333333"/>
<path d="M34.4246 16.2034C32.6085 16.2034 31.3438 14.6726 31.3438 12.4851C31.3438 10.2982 32.6085 8.76842 34.4246 8.76842C36.2474 8.76842 37.527 10.2982 37.527 12.4851C37.527 14.7072 36.2779 16.2034 34.4246 16.2034ZM34.4246 5.50049C30.5783 5.50049 27.7891 8.43875 27.7891 12.4851C27.7891 16.5315 30.5783 19.4692 34.4246 19.4692C38.2775 19.4692 41.0822 16.5315 41.0822 12.4851C41.0822 8.43875 38.2775 5.50049 34.4246 5.50049Z" fill="#333333"/>
<path d="M112.076 16.2034C110.261 16.2034 108.995 14.6726 108.995 12.4851C108.995 10.2982 110.261 8.76842 112.076 8.76842C113.899 8.76842 115.179 10.2982 115.179 12.4851C115.179 14.7072 113.93 16.2034 112.076 16.2034ZM112.076 5.50049C108.231 5.50049 105.441 8.43875 105.441 12.4851C105.441 16.5315 108.231 19.4692 112.076 19.4692C115.929 19.4692 118.734 16.5315 118.734 12.4851C118.734 8.43875 115.929 5.50049 112.076 5.50049Z" fill="#333333"/>
<path d="M80.5992 15.61C78.6187 15.61 77.9137 13.7762 77.9137 12.0576C77.9137 11.3005 78.0941 8.83277 80.4089 8.83277C81.5593 8.83277 83.0924 9.18264 83.0924 12.1847C83.0924 15.0161 81.7357 15.61 80.5992 15.61ZM84.9732 5.74084C84.2858 5.74084 83.7568 6.03169 83.4917 6.56288L83.3915 6.76917L83.2237 6.61446C82.6389 6.07742 81.5904 5.44043 79.8878 5.44043C76.5003 5.44043 74.2197 8.14049 74.2197 12.1587C74.2197 16.1721 76.5795 18.9769 79.956 18.9769C81.1093 18.9769 82.0207 18.6913 82.7431 18.1107L83.0227 17.8879V18.2628C83.0227 20.0642 81.925 21.058 79.935 21.058C78.9679 21.058 78.0876 20.8081 77.499 20.5816C76.7303 20.3354 76.2799 20.5391 75.9683 21.3574L75.6807 22.1124L75.2739 23.2152L75.5259 23.3577C76.7995 24.075 78.4574 24.503 79.956 24.503C83.0413 24.503 86.6436 22.8271 86.6436 18.1107L86.6568 5.74084H84.9738" fill="#333333"/>
<path d="M6.70324 16.0485L3.75427 16.0454V12.3037C3.75427 11.504 4.04637 11.0882 4.69212 10.9925H6.70324C8.13867 10.9925 9.0661 11.9533 9.06713 13.5075C9.0661 15.1026 8.16172 16.0475 6.70324 16.0486V16.0485ZM3.75427 5.95488V4.97014C3.75427 4.10823 4.09792 3.69828 4.85206 3.64563H6.36106C7.6552 3.64563 8.43034 4.46768 8.43034 5.8427C8.43034 6.89124 7.89973 8.11472 6.40864 8.11472H3.75427V5.95488ZM10.4695 9.68913L9.9364 9.37117L10.4018 8.94898C10.943 8.45502 11.8503 7.3448 11.8503 5.42636C11.8503 2.49127 9.70495 0.596758 6.38456 0.596758H2.59538V0.595581H2.1639C1.17949 0.633876 0.391874 1.48355 0.380859 2.53476V19.1951H2.11985C2.12425 19.1963 2.12572 19.1951 2.12719 19.1963L6.45945 19.1951C10.1505 19.1951 12.5329 17.0629 12.5329 13.7604C12.5329 11.9823 11.7629 10.4621 10.4688 9.68902" fill="#333333"/>
<path d="M134.917 5.51465C133.414 5.51465 131.961 6.26171 131.028 7.51443L130.765 7.86749L130.56 7.47242C129.889 6.17397 128.734 5.51465 127.128 5.51465C125.444 5.51465 124.315 6.51161 123.79 7.10447L123.447 7.49901L123.315 6.98005C123.123 6.23299 122.497 5.82143 121.547 5.82143H120.024L120.01 19.2569H123.469V13.3261C123.469 12.8066 123.53 12.2924 123.653 11.7549C123.983 10.3219 124.891 8.78046 126.416 8.93465C127.357 9.03036 127.817 9.80188 127.817 11.2923V19.2569H131.301V13.3261C131.301 12.6769 131.358 12.1909 131.496 11.7033C131.776 10.3352 132.724 8.93252 134.196 8.93252C135.261 8.93252 135.655 9.57271 135.655 11.2923V17.2927C135.655 18.6502 136.225 19.2569 137.504 19.2569H139.132L139.135 10.6797C139.135 7.25336 137.713 5.51465 134.916 5.51465" fill="#333333"/>
<path d="M103.438 14.5922C103.428 14.6054 101.939 16.2713 99.9793 16.2713C98.1937 16.2713 96.3895 15.1085 96.3895 12.5126C96.3895 10.2715 97.7883 8.705 99.7905 8.705C100.441 8.705 101.18 8.95226 101.296 9.36806L101.313 9.43825C101.58 10.381 102.387 10.4315 102.546 10.4315L104.441 10.4336V8.67518C104.441 6.35583 101.661 5.51465 99.7905 5.51465C95.7903 5.51465 92.8877 8.47046 92.8877 12.5408C92.8877 16.6095 95.7587 19.561 99.7173 19.561C103.152 19.561 105.02 17.1651 105.037 17.1412L105.137 17.0114L103.636 14.3688L103.438 14.5921" fill="#333333"/>
</g>
<defs>
<clipPath id="clip0">
<rect width="138.754" height="24.467" fill="white" transform="translate(0.380859 0.00463867)"/>
</clipPath>
</defs>
</svg>
