<svg width="95" height="36" viewBox="0 0 95 36" fill="none" xmlns="http://www.w3.org/2000/svg">
<path d="M41.5943 26.2762V19.1897H48.6551V15.9289H41.5686V11.4356H49.5281V8.07212H38.0254V26.2762H41.5943ZM55.0312 26.2762V13.6352H51.6249V26.2676H55.0398L55.0312 26.2762ZM51.2141 9.5014C51.2616 10.027 51.5039 10.5159 51.8935 10.8719C52.2831 11.2279 52.7918 11.4253 53.3195 11.4253C53.8473 11.4253 54.356 11.2279 54.7456 10.8719C55.1352 10.5159 55.3775 10.027 55.4249 9.5014C55.4249 8.94301 55.2031 8.4075 54.8083 8.01265C54.4134 7.61781 53.8779 7.396 53.3195 7.396C52.7611 7.396 52.2256 7.61781 51.8308 8.01265C51.4359 8.4075 51.2141 8.94301 51.2141 9.5014ZM61.4844 26.2762V24.7356C62.1605 25.814 63.4957 26.5843 65.2416 26.5843C68.8362 26.5843 71.1984 23.7343 71.1984 19.9086C71.1984 16.16 69.0587 13.31 65.37 13.31C63.4871 13.31 62.1092 14.1316 61.5443 15.0217V7.69555H58.1808V26.2847H61.493L61.4844 26.2762ZM67.7835 19.9343C67.7835 22.2451 66.397 23.5289 64.6511 23.5289C62.9308 23.5289 61.4844 22.2194 61.4844 19.9343C61.4844 17.6235 62.9308 16.3654 64.6511 16.3654C66.397 16.3654 67.7835 17.6235 67.7835 19.9343ZM81.0921 13.5924C80.8353 13.5667 80.5785 13.541 80.2961 13.541C79.2177 13.541 77.4718 13.8491 76.7015 15.5095V13.6437H73.3894V26.2762H76.8042V20.4991C76.8042 17.7775 78.3191 16.9302 80.0565 16.9302C80.4014 16.9299 80.7455 16.9643 81.0835 17.0329V13.5924H81.0921ZM85.3457 18.5221C85.4087 17.8246 85.7366 17.1777 86.2619 16.7145C86.7872 16.2512 87.47 16.0069 88.17 16.0316C90.1213 16.0316 90.943 17.264 90.9943 18.5136H85.3457V18.5221ZM91.3281 21.8086C90.9173 22.9383 90.0443 23.7343 88.4524 23.7343C86.7578 23.7343 85.3457 22.5275 85.2686 20.8586H94.3065C94.3065 20.8073 94.3578 20.2937 94.3578 19.8059C94.3578 15.7491 92.0213 13.2586 88.1101 13.2586C84.8835 13.2586 81.9051 15.8775 81.9051 19.9086C81.9051 24.1708 84.9605 26.6613 88.4267 26.6613C91.5335 26.6613 93.5362 24.8383 94.1781 22.6559L91.3281 21.8001V21.8086Z" fill="#333333"/>
<path d="M21.5 16.6224L26 24.6224C26.1667 25.1224 26.2 26.1224 25 26.1224C23.8 26.1224 14 26.1224 9 26.1224M6 25.6224L15 9.12242C15.5 8.12247 16.3455 7.79516 17 8.12242C18 8.62244 19.5 12.1224 20.5 14.1225" stroke="#333333" stroke-width="1.6" stroke-linecap="round"/>
<path d="M11 17.1224L14 22.1224" stroke="#333333" stroke-width="1.6" stroke-linecap="round" stroke-linejoin="round"/>
</svg>
