<svg width="78" height="27" viewBox="0 0 78 27" fill="none" xmlns="http://www.w3.org/2000/svg">
<g clip-path="url(#clip0)">
<path fill-rule="evenodd" clip-rule="evenodd" d="M16.624 20.3324L19.8316 0.163696H22.4361L19.2292 20.3324H16.624ZM32.5331 19.9441C31.9173 23.8695 29.621 25.9162 26.0085 25.9162C23.7957 25.9162 22.0591 25.1023 20.883 23.728L22.3387 21.9335C23.346 23.1123 24.5509 23.6727 25.9792 23.6727C28.1634 23.6727 29.5083 22.4105 29.9286 19.9434L30.0954 18.9614H30.0393C28.8632 20.0555 27.4909 20.6439 25.9785 20.6439C23.1766 20.6439 21.833 19.2429 21.833 16.5784C21.833 16.0741 21.889 15.541 21.9731 14.952L23.2873 6.65553H25.8638L24.5795 14.9526C24.4955 15.4016 24.4675 15.7665 24.4675 16.1021C24.4675 17.6165 25.1399 18.3743 26.6523 18.3743C28.2201 18.3743 29.621 17.4203 30.573 15.7659L32.0274 6.65687H34.6319L32.5331 19.9441ZM61.8414 9.12325L62.3924 6.60483H59.8253L57.6405 20.3677H60.245L61.4024 12.9799C61.9135 10.2714 63.9188 8.92778 66.043 8.92778C66.3032 8.92778 66.49 8.92778 66.6981 8.94779L67.0864 6.50209C64.6313 6.11983 62.7881 7.36936 61.8427 9.12391L61.8414 9.12325ZM52.0239 6.6562L47.7516 16.1775L46.2306 6.6562H43.7041L39.3098 16.1775L37.8621 6.6562H35.2269L37.4445 20.4178H40.1197L44.4173 10.8798L45.9143 20.4178H48.5655L54.7592 6.6562H52.0239ZM52.9339 20.4178L55.1181 6.6562H57.7225L55.5384 20.4178H52.9339Z" fill="#333333"/>
<path fill-rule="evenodd" clip-rule="evenodd" d="M68.44 12.0425C68.8603 9.71221 70.292 8.42932 72.4728 8.42932C74.0713 8.42932 75.104 9.18984 75.104 10.364C75.104 11.8083 74.0806 12.4808 71.8831 12.4808H68.3586L68.44 12.0425ZM70.6215 18.3455C69.6662 18.3655 68.9337 18.0854 68.4514 17.5183C67.943 16.9205 67.8069 15.9385 68.0257 14.5976H71.8317C72.9805 14.5976 74.5309 14.4428 75.7744 13.6863C76.9933 12.9444 77.611 11.8097 77.611 10.314C77.611 9.27657 77.1654 8.2592 76.3882 7.52002C75.4842 6.66209 74.19 6.20844 72.6469 6.20844C67.0004 6.20844 66.3112 10.2179 65.7575 13.4415L65.56 14.671C65.3218 16.3882 65.6414 17.7745 66.536 18.9086C67.3686 19.9627 68.7936 20.5431 70.5488 20.5431C76.2328 20.5431 76.7485 15.7597 76.7485 15.7597H74.3555C74.3555 15.7597 74.242 18.2748 70.6209 18.3462L70.6215 18.3455ZM9.98011 10.4621L10.235 8.95568H0.935162L1.31743 6.55935H10.6119L10.7933 5.41322C11.325 2.08024 13.5586 0.159578 16.9476 0.16358H18.8089L18.444 2.49853L16.6994 2.4952C14.8148 2.4932 13.7374 3.42718 13.3971 5.51062L13.2304 6.56002H16.8242L16.4439 8.95501H12.8548L10.8934 20.5597C10.3617 23.894 8.0928 25.8034 4.68443 25.798L4.4883 25.7967L4.8859 23.2683L5.01266 23.2663C6.93199 23.2689 7.96337 22.4557 8.30161 20.3829L9.57583 12.8577H0.262695L0.644961 10.4627H9.98011V10.4621ZM58.3884 3.89484C58.3884 4.71941 57.7186 5.38787 56.894 5.38787C56.0681 5.38787 55.3996 4.72074 55.3996 3.8955C55.3996 3.0716 56.0681 2.40313 56.894 2.40313C57.7186 2.40313 58.3884 3.0716 58.3884 3.8955" fill="#333333"/>
</g>
<defs>
<clipPath id="clip0">
<rect width="77.387" height="26.0181" fill="white" transform="translate(0.262695 0.163574)"/>
</clipPath>
</defs>
</svg>
