<svg width="122" height="27" viewBox="0 0 122 27" fill="none" xmlns="http://www.w3.org/2000/svg">
<g clip-path="url(#clip0)">
<path fill-rule="evenodd" clip-rule="evenodd" d="M95.2932 25.891L90.4497 8.08504L83.2713 24.5668C83.0158 25.1011 82.7022 25.5192 82.3305 25.8213C81.9821 26.1 81.5407 26.2394 81.0064 26.2394C79.961 26.2394 79.2061 25.6819 78.7415 24.5668L72.9342 11.9529L73.3404 25.891H68.9151V2.05683C69.2171 0.848857 69.9489 0.244873 71.1104 0.244873C71.5749 0.244873 72.0047 0.372639 72.3996 0.628171C72.8177 0.883703 73.1314 1.25538 73.3404 1.74322L81.1458 19.6537L88.9507 1.74322C89.3695 0.744322 90.0779 0.244873 91.0766 0.244873C92.145 0.244873 92.8534 0.848857 93.2025 2.05683L99.6836 25.891H95.2932ZM12.4078 26.0073C10.6423 26.0073 9.00459 25.6821 7.49461 25.0316C6.00788 24.3579 4.70699 23.452 3.59194 22.3136C2.50013 21.1521 1.64062 19.7816 1.0134 18.2019C0.409413 16.6223 0.107422 14.9149 0.107422 13.0797C0.107422 11.2213 0.409413 9.52551 1.0134 7.99229C1.64062 6.45909 2.50013 5.15821 3.59194 4.08962C4.70699 2.9978 6.00788 2.16151 7.49461 1.58077C9.00459 0.976781 10.6423 0.674789 12.4078 0.674789H26.1368V5.10013H12.4078C11.2695 5.10013 10.2125 5.3092 9.23691 5.72735C8.28444 6.12226 7.45976 6.67978 6.76286 7.39991C6.06595 8.12005 5.52004 8.97955 5.12513 9.97848C4.73022 10.9773 4.53277 12.0808 4.53277 13.2887C4.53277 14.4735 4.73022 15.5769 5.12513 16.5991C5.52004 17.6212 6.06595 18.5039 6.76286 19.2473C7.45976 19.9674 8.28444 20.5365 9.23691 20.9547C10.2125 21.3729 11.2695 21.5819 12.4078 21.5819H23.2446V14.9962H11.8154V11.2677H27.7049V26.0073H12.4078ZM31.3181 26.0073V0.674789H35.7434V26.0073H31.3181ZM46.3225 25.0316C47.8325 25.6821 49.4702 26.0073 51.2357 26.0073H66.5328V11.2677H50.6433V14.9962H62.0725V21.5819H51.2357C50.0974 21.5819 49.0404 21.3729 48.0647 20.9547C47.1123 20.5365 46.2877 19.9674 45.5908 19.2473C44.8939 18.5039 44.3479 17.6212 43.9531 16.5991C43.5582 15.5769 43.3607 14.4735 43.3607 13.2887C43.3607 12.0808 43.5582 10.9773 43.9531 9.97848C44.3479 8.97955 44.8939 8.12005 45.5908 7.39991C46.2877 6.67978 47.1123 6.12226 48.0647 5.72735C49.0404 5.3092 50.0974 5.10013 51.2357 5.10013H64.9647V0.674789H51.2357C49.4702 0.674789 47.8325 0.976781 46.3225 1.58077C44.8358 2.16151 43.5349 2.9978 42.4198 4.08962C41.328 5.15821 40.4686 6.45909 39.8413 7.99229C39.2373 9.52551 38.9353 11.2213 38.9353 13.0797C38.9353 14.9149 39.2373 16.6223 39.8413 18.2019C40.4686 19.7816 41.328 21.1521 42.4198 22.3136C43.5349 23.452 44.8358 24.3579 46.3225 25.0316ZM113.55 23.3937C113.55 25.359 112.222 26.1117 110.999 26.1117H110.988C109.504 26.1117 108.448 25.1186 108.448 23.4669C108.448 21.7735 109.514 20.7594 111.062 20.7594C112.588 20.7594 113.55 21.8467 113.55 23.3937ZM110.288 23.4355C110.288 24.2405 110.507 24.8154 111.02 24.8154H111.03C111.49 24.8154 111.71 24.23 111.71 23.4355C111.71 22.7351 111.522 22.0557 111.02 22.0557C110.466 22.0557 110.288 22.7561 110.288 23.4355ZM108.111 24.5645C107.902 24.6586 107.672 24.69 107.39 24.69C106.742 24.69 106.229 24.251 106.229 23.4146C106.219 22.641 106.689 22.1602 107.369 22.1602C107.693 22.1602 107.913 22.2125 108.08 22.2752L108.32 20.9267C108.028 20.8221 107.62 20.7699 107.265 20.7699C105.403 20.7699 104.4 21.9616 104.4 23.4878C104.4 25.1395 105.424 26.1012 107.035 26.1012C107.557 26.1012 108.038 26.0176 108.289 25.913L108.111 24.5645ZM102.964 26.1117C103.58 26.1117 103.998 25.6727 103.998 25.035C103.988 24.3764 103.559 23.9478 102.974 23.9478C102.389 23.9478 101.939 24.3973 101.939 25.035C101.939 25.6727 102.378 26.1117 102.953 26.1117H102.964ZM114.186 26.0071H115.952V22.9861C115.952 22.8502 115.962 22.7142 116.004 22.6097C116.088 22.4216 116.245 22.2229 116.527 22.2229C116.935 22.2229 117.06 22.6201 117.06 23.1011V26.0071H118.827V22.9861C118.827 22.8711 118.837 22.7142 118.869 22.6306C118.952 22.3902 119.13 22.2229 119.402 22.2229C119.789 22.2229 119.935 22.5992 119.935 23.2056V26.0071H121.702V22.9338C121.702 21.5748 121.148 20.7594 120.071 20.7594C119.747 20.7594 119.465 20.8326 119.214 20.9581C118.963 21.094 118.743 21.2926 118.555 21.533H118.534C118.336 21.0626 117.865 20.7594 117.227 20.7594C116.443 20.7594 115.994 21.1985 115.785 21.4912H115.753L115.67 20.864H114.144C114.165 21.3553 114.186 21.9407 114.186 22.5784V26.0071ZM97.4385 4.51913H96.5345V1.77507H95.7238V0.996278H98.2643V1.77507H97.4385V4.51913ZM102.207 4.51913H101.35L101.303 3.30129C101.293 2.94064 101.282 2.48068 101.282 1.98414H101.266C101.178 2.42319 101.042 2.92496 100.948 3.25948L100.629 4.44595H99.9395L99.6626 3.2647C99.5837 2.93019 99.4796 2.43365 99.4116 1.98414H99.4007C99.3856 2.31219 99.3714 2.65886 99.3579 2.96156V2.97194L99.3487 3.18008L99.3437 3.30129L99.2908 4.51913H98.4758L98.7108 0.996278H99.8506L100.081 1.9946C100.175 2.40228 100.274 2.85178 100.342 3.27515H100.358C100.441 2.85701 100.551 2.38138 100.645 1.98937L100.896 0.996278H102.019L102.207 4.51913Z" fill="#333333"/>
</g>
<defs>
<clipPath id="clip0">
<rect width="121.613" height="26.0181" fill="white" transform="translate(0.107422 0.244873)"/>
</clipPath>
</defs>
</svg>
