<svg width="70" height="26" viewBox="0 0 70 26" fill="none" xmlns="http://www.w3.org/2000/svg">
<path fill-rule="evenodd" clip-rule="evenodd" d="M48.1852 20.5555H46.4444C46.2593 20.5555 46.0741 20.3703 46.0741 20.1481V17.9629C46.0741 17.7778 46.2593 17.5926 46.4444 17.5926H48.1852C48.4074 17.5926 48.5926 17.7778 48.5926 17.9629V20.1481C48.5926 20.3703 48.4074 20.5555 48.1852 20.5555ZM8.62963 20.5555H6.85185C6.62963 20.5555 6.44444 20.3333 6.44444 20.1481V13.7778C6.44444 12.1111 6.14815 11.6666 4.85185 11.6666C4.18518 11.6666 3.40741 11.8889 2.59259 12.3333V20.1481C2.59259 20.3333 2.40741 20.5555 2.18518 20.5555H0.407407C0.185185 20.5555 0 20.3333 0 20.1481V2.11109C0 1.92591 0.185185 1.74072 0.407407 1.74072H2.18518C2.40741 1.74072 2.59259 1.92591 2.59259 2.11109V10.2222C3.33333 9.77776 4.14815 9.5185 5.51852 9.5185C8.22222 9.5185 9.03704 11.4074 9.03704 13.7778V20.1481C9.03704 20.3333 8.85185 20.5555 8.62963 20.5555ZM16.0741 14.3333C16.0741 12.7407 15.3704 11.7037 14 11.7037C12.6296 11.7037 11.8889 12.7407 11.8889 14.3333V15.8889C11.8889 17.4815 12.6296 18.4815 14 18.4815C15.3704 18.4815 16.0741 17.4815 16.0741 15.8889V14.3333ZM14 20.7037C10.9259 20.7037 9.33333 18.6666 9.33333 15.8889V14.3333C9.33333 11.5555 10.9259 9.5185 14 9.5185C17.037 9.5185 18.6667 11.5555 18.6667 14.3333V15.8889C18.6667 18.6666 17.037 20.7037 14 20.7037ZM24.4074 20.5555C23.9259 20.6296 23.5185 20.7037 23.0741 20.7037C20.8519 20.7037 19.963 20.2222 19.963 17.6296V11.5555L18.1481 11.2963C17.9259 11.2592 17.7407 11.1111 17.7407 10.8889V10.037C17.7407 9.8148 17.9259 9.62961 18.1481 9.62961H19.963V8.03702C19.963 7.85183 20.1481 7.70369 20.3704 7.66665L22.1852 7.37035H22.2593C22.4444 7.37035 22.5556 7.44443 22.5556 7.62961V9.62961H24.3333C24.5185 9.62961 24.7037 9.8148 24.7037 10.037V11.1481C24.7037 11.3704 24.5185 11.5555 24.3333 11.5555H22.5556V17.6296C22.5556 18.5926 22.6296 18.7037 23.3333 18.7037H24.3704C24.6296 18.7037 24.7778 18.8148 24.7778 19V20.2222C24.7778 20.4074 24.6667 20.5185 24.4074 20.5555ZM31.6296 14.0741C31.6296 12.5926 30.8148 11.7037 29.5926 11.7037C28.3704 11.7037 27.5185 12.5555 27.5185 14.0741V14.1481H31.6296V14.0741ZM33.8518 15.9629H27.4815V16.037C27.4815 17.1481 27.963 18.4815 29.8148 18.4815C31.2593 18.4815 32.5926 18.3703 33.4074 18.2963H33.4815C33.6667 18.2963 33.8148 18.4074 33.8148 18.5926V19.8518C33.8148 20.1852 33.7778 20.2963 33.4074 20.3703C32.1481 20.5926 31.4074 20.7037 29.6296 20.7037C27.6667 20.7037 24.9259 19.6666 24.9259 15.8518V14.4074C24.9259 11.4074 26.5926 9.5185 29.5926 9.5185C32.5926 9.5185 34.2593 11.5185 34.2593 14.4074V15.4815C34.2593 15.8148 34.1111 15.9629 33.8518 15.9629ZM37 24.4074H35.1852C34.963 24.4074 34.7778 24.1852 34.7778 24V6.2222C34.7778 5.99998 34.963 5.8148 35.1852 5.8148H37C37.2222 5.8148 37.3704 5.99998 37.3704 6.2222V24C37.3704 24.1852 37.2222 24.4074 37 24.4074ZM41.6667 20.7037C40.9259 20.7037 39.2593 20.5926 38.1852 20.2963C37.9259 20.2592 37.8148 20.1111 37.8148 19.8518V18.7037C37.8148 18.5555 37.9259 18.4074 38.1481 18.4074H38.2222C39.1481 18.5185 40.9259 18.5926 41.4815 18.5926C42.7037 18.5926 42.8889 18.2222 42.8889 17.6666C42.8889 17.3333 42.6667 17.0741 42.037 16.7037L39.3333 15.0741C38.8554 14.8071 38.4544 14.4214 38.169 13.9543C37.8835 13.4872 37.7233 12.9544 37.7037 12.4074C37.7037 10.4815 38.9259 9.5185 41.4074 9.5185C43 9.5185 43.8889 9.66665 44.8889 9.88887C45.1481 9.96294 45.2593 10.1111 45.2593 10.3333V11.4444C45.2593 11.7037 45.1481 11.8148 44.9259 11.8148H44.8518C44.2963 11.7407 42.7407 11.5926 41.6296 11.5926C40.7037 11.5926 40.2963 11.8148 40.2963 12.4074C40.2963 12.7037 40.5926 12.8889 41.0741 13.1852L43.6296 14.7407C45.2593 15.7407 45.5185 16.7037 45.5185 17.6666C45.5185 19.3703 44.2222 20.7037 41.6667 20.7037ZM57.8889 20.5555H56.1111C55.8889 20.5555 55.7037 20.3333 55.7037 20.1481V13.8518C55.7037 12.1481 55.5555 11.6666 54.037 11.6666C53.3704 11.6666 52.6667 11.9259 51.8518 12.3704V20.1481C51.8518 20.3333 51.6667 20.5555 51.4444 20.5555H49.6667C49.4444 20.5555 49.2593 20.3333 49.2593 20.1481V10.037C49.2593 9.8148 49.4444 9.62961 49.6667 9.62961H51.3704C51.5555 9.62961 51.7407 9.8148 51.7407 10.037V10.4444C52.8889 9.70368 53.6296 9.5185 54.9259 9.5185C57.7407 9.5185 58.2963 11.3704 58.2963 13.8518V20.1481C58.2963 20.3333 58.1111 20.5555 57.8889 20.5555ZM65.8148 13.2222C65.8148 12.2963 65.4074 11.5926 63.7407 11.5926C62.0741 11.5926 61.6296 12.3333 61.6296 13.2222V13.4074C61.6296 14.1111 61.8889 14.9259 63.7407 14.9259C65.3333 14.9259 65.8148 14.3704 65.8148 13.4074V13.2222ZM66.037 21.2963C66.037 20.8889 65.7778 20.6296 63.7407 20.1481L62 19.7407C61.7037 20.1481 61.4815 20.4074 61.4815 21.0741V21.2592C61.4815 22.037 62 22.5185 63.8148 22.5185C65.7037 22.5185 66.037 22.1481 66.037 21.4444V21.2963ZM68.5185 11.4074L67.8518 11.6666C68.1852 12.1111 68.3333 12.5185 68.3333 13.1852V13.3333C68.3333 15.7407 66.6667 16.8518 63.7407 16.8518C62.7037 16.8518 62 16.6666 61.5926 16.5185C61.3704 16.6666 61.2593 16.8518 61.2593 17.037C61.2593 17.4074 61.4815 17.5555 61.9259 17.6666L64.2222 18.2222C66.8889 18.8148 68.5926 19.2222 68.5926 21.2963V21.4444C68.5926 23.4074 67.1481 24.4815 63.8148 24.4815C60.6667 24.4815 58.963 23.2963 58.963 21.2592V21.0741C58.963 20.2963 59.3333 19.5185 59.963 18.9629C59.6938 18.7521 59.4769 18.482 59.3291 18.1737C59.1814 17.8653 59.1068 17.5271 59.1111 17.1852V17.1481C59.1111 16.5555 59.3333 15.9629 59.8889 15.5926C59.2963 15 59.0741 14.2963 59.0741 13.3333V13.1852C59.0741 11.2592 60.3333 9.62961 63.7407 9.62961H68.2963C68.5926 9.62961 68.8148 9.88887 68.8148 10.1481V10.9629C68.8148 11.2592 68.7407 11.2963 68.5185 11.4074Z" fill="#333333"/>
</svg>
