<svg width="121" height="48" viewBox="0 0 121 48" fill="none" xmlns="http://www.w3.org/2000/svg">
<path fill-rule="evenodd" clip-rule="evenodd" d="M56.1166 15.3381L55.6557 11.3404C51.4101 9.93522 44.5317 9.18547 40.8788 12.6211C35.8761 17.1492 37.5219 28.6109 47.5269 28.8297C52.5623 29.0169 54.6685 27.7678 57.2688 27.018C57.0051 26.7681 56.676 26.3937 56.6101 26.0811L56.6433 21.709C56.6761 21.2092 56.9392 20.9281 57.3015 20.5533H53.2532C53.6481 20.9593 53.9118 21.1781 53.9445 21.7712L54.0104 26.737C47.3291 28.923 42.3596 27.018 41.3065 22.0523C40.3193 15.182 42.8864 11.653 48.514 11.3715C52.2987 11.3093 54.6026 12.6522 56.1166 15.3381Z" fill="#333333"/>
<path fill-rule="evenodd" clip-rule="evenodd" d="M72.9842 10.1915L73.0481 12.2956C72.602 11.9187 72.0604 11.4164 71.3599 11.4164L65.7869 11.4475V17.8239H71.201C71.4555 17.8239 71.7104 17.5725 71.8693 17.3527V20.3991C71.7104 20.2109 71.3599 19.8025 71.1688 19.8025H65.7869V27.5292H71.9332C72.8248 27.5919 73.7164 26.4925 74.1625 26.1472L73.6531 28.8484H62.666C62.8254 28.6913 63.2393 28.0947 63.2393 27.5608V11.4475C63.2393 10.7254 62.921 10.3797 62.666 10.1599L72.9842 10.1915Z" fill="#333333"/>
<path fill-rule="evenodd" clip-rule="evenodd" d="M95.4288 10.1599L87.4298 27.8171C87.3327 28.1609 87.0737 28.5358 86.4258 28.7857L90.4092 28.8173C89.9882 28.5358 89.8911 28.2858 89.8911 28.0043L91.7693 23.3482H98.3755L100.546 27.8794C100.643 28.2858 100.319 28.5358 99.6713 28.8484L104.82 28.8173C104.334 28.5669 104.01 28.4108 103.622 27.8171C103.622 27.8171 95.461 10.2226 95.4288 10.1599ZM95.1371 15.0353L92.3523 21.3168L97.8574 21.3479C97.8574 21.3479 95.1698 15.0353 95.1371 15.0353Z" fill="#333333"/>
<path fill-rule="evenodd" clip-rule="evenodd" d="M13.142 28.8485C13.304 28.6915 13.7255 28.0948 13.7255 27.5609V19.4574H3.60863V27.5609C3.60863 28.0948 3.99798 28.6915 4.15995 28.8485H0.236328C0.398301 28.6915 0.787649 28.0948 0.787649 27.5609V11.4477C0.819839 10.7256 0.463192 10.3798 0.236328 10.16H4.15995C3.93309 10.3798 3.57644 10.7256 3.60863 11.4477V17.7924H13.7255V11.4477C13.7255 10.7256 13.4011 10.3798 13.142 10.16H17.0979C16.8383 10.3798 16.5143 10.7256 16.5143 11.4477V27.5609C16.5143 28.0948 16.9359 28.6915 17.0979 28.8485H13.142Z" fill="#333333"/>
<path fill-rule="evenodd" clip-rule="evenodd" d="M89.9677 37.8189C89.9963 37.7542 90.1103 37.5601 90.1103 37.3986V34.8124H87.3399V37.3986C87.3399 37.5601 87.4538 37.7542 87.5111 37.8189H86.4258C86.483 37.7542 86.597 37.5601 86.597 37.3986V32.2589C86.597 32.0327 86.483 31.9033 86.4258 31.8386H87.5111C87.4257 31.9033 87.3399 32.0327 87.3399 32.2589V34.2632H90.1103V32.2589C90.1103 32.0327 90.0244 31.9033 89.9677 31.8386H91.0244C90.9671 31.9033 90.8813 32.0327 90.8813 32.2589V37.3986C90.8813 37.5601 90.9958 37.7542 91.0244 37.8189H89.9677Z" fill="#333333"/>
<path fill-rule="evenodd" clip-rule="evenodd" d="M102.504 31.8386C104.231 31.8386 105.587 33.1677 105.587 34.8287C105.587 36.4898 104.231 37.8189 102.504 37.8189C100.81 37.8189 99.4551 36.4898 99.4551 34.8287C99.4551 33.1677 100.81 31.8386 102.504 31.8386ZM102.504 32.5365C103.689 32.5365 104.672 33.5663 104.672 34.8287C104.672 36.1243 103.689 37.1546 102.504 37.1546C101.352 37.1546 100.37 36.1243 100.37 34.8287C100.37 33.5663 101.352 32.5365 102.504 32.5365Z" fill="#333333"/>
<path fill-rule="evenodd" clip-rule="evenodd" d="M92.9296 31.8386H93.6224L95.5559 35.9114L97.2875 31.8386H98.3845C98.2691 31.9354 98.1822 32.0327 98.1822 32.1942C98.1822 32.1942 98.5578 36.3964 98.7018 37.3338C98.732 37.5284 98.8751 37.6574 99.0483 37.8189H97.3453C97.4899 37.6574 97.6631 37.5487 97.6631 37.3664C97.6631 36.6661 97.3453 33.6167 97.3453 33.6167L95.5569 37.7542L93.6521 33.6488C93.6521 33.6488 93.1999 36.6765 93.1611 37.3664C93.1524 37.5294 93.2765 37.6574 93.4211 37.7868H92.1504C92.3236 37.6895 92.4115 37.5324 92.4391 37.3664C92.5929 36.429 93.0742 32.1616 93.0742 32.1616C93.0742 32.0969 93.0451 31.9354 92.9296 31.8386Z" fill="#333333"/>
<path fill-rule="evenodd" clip-rule="evenodd" d="M78.1875 28.8588C78.3893 28.7017 78.9136 28.1051 78.9136 27.5712V11.4579C78.9136 10.7358 78.5104 10.3901 78.1875 10.1703H82.4821C82.1591 10.3901 81.756 10.7358 81.756 11.4579V27.5712C81.756 28.1051 82.2802 28.7017 82.4821 28.8588H78.1875Z" fill="#333333"/>
<path fill-rule="evenodd" clip-rule="evenodd" d="M26.5398 21.7539C24.0367 19.8114 21.8539 17.1951 20.9955 11.6239C20.9004 11.0969 20.5198 10.599 20.1074 10.1599L24.707 10.1891C24.263 10.6281 23.819 11.0381 23.819 11.7118C23.9774 13.6148 24.1726 16.64 27.8985 20.1527C28.0625 20.3068 28.4518 20.6219 28.4518 20.6219L27.1627 22.1643C27.1627 22.1643 26.7836 21.9426 26.5398 21.7539Z" fill="#333333"/>
<path fill-rule="evenodd" clip-rule="evenodd" d="M27.8981 20.8244C24.9259 23.4495 24.5217 26.9291 27.0392 29.9014C27.5966 30.5598 27.8981 30.8468 28.057 31.1298C28.407 31.6691 28.6298 32.328 28.5664 33.2269C29.3364 32.6999 29.575 31.1846 28.7887 30.0812C27.0346 27.6201 25.7168 25.1989 29.2026 22.4424C31.7788 20.4046 34.4199 17.7691 35.311 11.6579C35.4061 11.1186 35.8199 10.6094 36.2016 10.1599L31.5887 10.19C32.0338 10.639 32.511 11.0588 32.511 11.7478C32.3204 13.6948 31.6945 17.4717 27.8981 20.8244Z" fill="#333333"/>
<path fill-rule="evenodd" clip-rule="evenodd" d="M29.6387 22.0963C29.6589 22.1198 29.6792 22.1492 29.6894 22.1649C30.5308 23.4046 30.987 24.7815 30.9465 26.0113C30.8755 28.3809 28.7364 29.6225 28.0977 31.2336C27.7226 32.1607 27.824 32.8251 28.2295 34.0814C26.6378 32.9652 26.9217 31.0317 27.2664 30.1037C27.7834 28.7347 29.2737 27.8801 29.2838 25.8232C29.2838 24.8138 28.8885 24.0925 28.27 23.2938C28.5336 23.0136 28.8479 22.7294 29.2027 22.4422C29.3548 22.3295 29.4967 22.2139 29.6387 22.0963Z" fill="#333333"/>
</svg>
