<svg width="108" height="32" viewBox="0 0 108 32" fill="none" xmlns="http://www.w3.org/2000/svg">
<g clip-path="url(#clip0)">
<path d="M101.581 3.66321C98.4793 3.66321 95.9775 6.16494 95.9775 9.2671C95.9775 12.3692 98.4793 14.871 101.581 14.871C104.684 14.871 107.185 12.3692 107.185 9.2671C107.185 6.06487 104.684 3.66321 101.581 3.66321Z" fill="#333333"/>
<path d="M101.882 16.4717C101.682 17.1722 101.582 17.7726 101.382 18.1729L101.282 18.373C101.182 18.8734 100.781 19.1736 100.281 19.1736H99.9809C99.7807 19.1736 99.5806 19.0735 99.3804 18.8734C99.2804 18.6732 99.1803 18.4731 99.1803 18.273L99.4805 16.2716C99.4805 16.1715 99.5806 15.9714 99.6806 15.8713C96.7786 15.1708 94.6772 12.569 94.6772 9.46685C94.6772 8.9665 94.7772 8.56623 94.7772 8.06588H86.5715C86.0712 8.06588 85.6709 7.76567 85.5709 7.26532L85.1706 5.56414C84.9704 4.96373 84.4701 4.46338 83.7696 4.46338H81.3679C80.8676 4.46338 80.5674 4.86366 80.5674 5.26393C80.5674 5.76428 80.9677 6.06449 81.3679 6.06449H82.6688C83.1692 6.06449 83.5695 6.3647 83.6695 6.86505L86.8718 19.8741C87.0719 20.4745 87.5722 20.9748 88.2727 20.9748H101.382C102.082 20.9748 102.583 20.5746 102.783 19.8741L103.884 15.471C103.183 15.7712 102.483 15.8713 101.782 15.9714C101.982 16.2716 101.982 16.3716 101.882 16.4717ZM87.172 12.8692C87.0719 12.3689 86.8718 11.8685 86.7717 11.4682L86.6716 11.068C86.5715 10.8678 86.6716 10.6677 86.7717 10.4675C86.8718 10.2674 87.172 10.1673 87.3721 10.1673H88.2727C88.7731 10.1673 89.1734 10.4675 89.1734 10.9679L89.4736 12.7691C89.4736 12.9693 89.4736 13.1694 89.2734 13.3696C89.1734 13.5697 88.8731 13.6698 88.673 13.6698H88.1727C87.6723 13.5697 87.272 13.2695 87.172 12.8692ZM90.2741 18.8734C90.174 19.0735 89.8738 19.1736 89.6737 19.1736H89.5736C89.0733 19.1736 88.673 18.8734 88.5729 18.373L88.4729 18.1729C88.3728 17.6725 88.1727 17.0721 87.9725 16.3716C87.8725 16.1715 87.9725 15.9714 88.0726 15.7712C88.1727 15.5711 88.4729 15.471 88.673 15.471H89.1734C89.6737 15.471 90.074 15.7712 90.174 16.2716L90.4743 18.273C90.4743 18.4731 90.4743 18.7733 90.2741 18.8734ZM93.9767 18.4731C93.9767 18.8734 93.6765 19.1736 93.2762 19.1736C92.8759 19.1736 92.4756 18.8734 92.4756 18.4731L92.1754 16.3716C92.1754 16.1715 92.1754 15.9714 92.3756 15.7712C92.4756 15.5711 92.7759 15.471 92.976 15.471H93.2762C93.7765 15.471 94.1768 15.8713 94.1768 16.3716V18.4731H93.9767ZM93.9767 12.7691C93.9767 13.2695 93.5764 13.6698 93.0761 13.6698H92.3756C91.8752 13.6698 91.4749 13.3696 91.3749 12.8692L91.1747 10.9679C91.1747 10.7678 91.1747 10.5676 91.3749 10.3675C91.575 10.1673 91.7752 10.0673 91.9753 10.0673H93.1761C93.6765 10.0673 93.9767 10.4675 93.9767 10.9679V12.7691ZM97.7793 16.3716L97.4791 18.4731C97.379 18.8734 97.0788 19.1736 96.6786 19.1736C96.2783 19.1736 95.9781 18.8734 95.9781 18.4731V16.3716C95.9781 15.8713 96.3783 15.471 96.8787 15.471H97.1789C97.379 15.471 97.5792 15.5711 97.7793 15.7712C97.7793 15.9714 97.7793 16.1715 97.7793 16.3716Z" fill="#333333"/>
<path d="M101.582 4.46338L102.983 7.26532L106.185 7.76567L103.884 9.9672L104.384 13.0694L101.582 11.6684L98.7803 13.0694L99.2806 9.9672L97.0791 7.76567L100.181 7.26532L101.582 4.46338Z" fill="#333333"/>
<path d="M89.1732 27.3801C90.4996 27.3801 91.5748 26.26 91.5748 24.8783C91.5748 23.4967 90.4996 22.3766 89.1732 22.3766C87.8467 22.3766 86.7715 23.4967 86.7715 24.8783C86.7715 26.26 87.8467 27.3801 89.1732 27.3801Z" fill="#333333"/>
<path d="M100.782 27.3801C102.108 27.3801 103.183 26.26 103.183 24.8783C103.183 23.4967 102.108 22.3766 100.782 22.3766C99.4551 22.3766 98.3799 23.4967 98.3799 24.8783C98.3799 26.26 99.4551 27.3801 100.782 27.3801Z" fill="#333333"/>
<path d="M27.3302 22.4757C26.2294 23.2762 24.5283 23.5764 22.2267 23.5764H18.9244C18.424 23.5764 18.0238 23.5764 17.4233 23.5764C16.923 23.5764 16.4226 23.4763 15.9223 23.3763C15.4219 23.2762 14.9216 23.0761 14.5213 22.976C14.021 22.7759 13.6207 22.4757 13.3205 22.1754C13.0203 21.8752 12.7201 21.3749 12.5199 20.8745C12.3198 20.3742 12.2197 19.7738 12.2197 18.9732V7.56531H15.2218V18.8732C15.2218 20.074 16.3226 20.6744 18.6242 20.6744H22.727C24.9285 20.6744 26.0293 20.074 26.0293 18.8732V7.56531H29.0314V19.0733C28.9313 20.5743 28.431 21.7752 27.3302 22.4757Z" fill="#333333"/>
<path d="M51.6468 23.7768V13.2695L45.1423 22.8761C44.9422 23.1764 44.642 23.4766 44.3417 23.6767C44.0415 23.8768 43.7413 23.9769 43.3411 23.9769C42.6406 23.9769 42.0401 23.6767 41.5398 22.9762L35.0353 13.1694V23.7768H32.0332V9.2667C32.0332 8.66629 32.2333 8.26601 32.5336 7.9658C32.8338 7.66559 33.234 7.46545 33.7344 7.46545C34.4349 7.46545 35.0353 7.76566 35.4356 8.26601L43.5412 19.8741L51.5467 8.36608C51.947 7.76566 52.4474 7.46545 53.1479 7.46545C53.6482 7.46545 54.0485 7.66559 54.3487 7.9658C54.6489 8.26601 54.849 8.76636 54.849 9.36677V23.6767H51.6468V23.7768Z" fill="#333333"/>
<path d="M57.6514 23.6765V7.56531H60.6535V23.6765H57.6514Z" fill="#333333"/>
<path d="M81.0677 23.7766L78.566 19.3735H69.1594L66.7578 23.7766H63.1553L72.1615 8.66607C72.5618 7.96559 73.1622 7.56531 73.8627 7.56531C74.5632 7.56531 75.1636 7.96559 75.5639 8.66607L84.37 23.7766H81.0677ZM73.8627 11.5681L70.9607 16.3714H76.7647L73.8627 11.5681Z" fill="#333333"/>
<path d="M9.21765 16.4711C9.21765 21.3745 7.4164 23.476 4.21418 24.1765C1.11202 24.7769 0.111328 24.7769 0.111328 24.7769V21.4746C1.31216 21.3745 3.21348 21.1744 4.41431 20.7741C5.51508 20.3738 6.31563 19.2731 6.31563 16.4711L6.4157 10.567V7.56494H9.41779L9.21765 16.4711Z" fill="#333333"/>
</g>
<defs>
<clipPath id="clip0">
<rect width="107.074" height="31.0215" fill="white" transform="translate(0.112305 0.161743)"/>
</clipPath>
</defs>
</svg>
