<svg xmlns="http://www.w3.org/2000/svg" width="108" height="108" viewBox="0 0 108 108" fill="none"><style>.a{fill:#333;}</style><path d="M9.7 70.5H13.2V71.9C14.4 70.7 15.8 70.3 17.4 70.3 19 70.4 20.4 71 21.3 72.3 21.8 71.9 22.3 71.4 22.9 71.1 24.6 70.2 26.4 70.1 28.2 70.8 29.9 71.4 30.7 72.8 30.9 74.5 31 75 31 75.5 31 76 31.1 78.2 31 80.5 31 82.8V83.1H27.4V82.8C27.4 80.7 27.4 78.5 27.3 76.4 27.3 75.8 27.2 75.3 27 74.8 26.8 74 26.1 73.6 25.3 73.6 23.5 73.4 22.3 74.5 22.2 76.5 22.2 78.5 22.2 80.6 22.2 82.7 22.2 82.9 22.2 83 22.2 83.1H18.5V82.8C18.5 80.7 18.5 78.6 18.5 76.5 18.5 75.9 18.5 75.3 18.2 74.7 17.9 74 17.3 73.7 16.6 73.6 14.9 73.3 13.7 74.3 13.5 76 13.4 76.4 13.4 76.7 13.4 77 13.4 79 13.4 80.9 13.4 82.8V83.1C13.4 83.1 13.4 83.1 13.3 83.1 12.1 83.1 10.9 83.1 9.7 83.1V70.5H9.7Z" class="a"/><path d="M85.1 86.2C85.6 85.3 86.1 84.4 86.5 83.6 87.2 83.9 87.8 84.2 88.4 84.5 89.6 84.9 90.8 85.1 92.1 84.8 93.7 84.6 94.6 83.6 94.7 82 94.7 81.7 94.7 81.4 94.7 81.1 94.6 81.1 94.6 81.1 94.6 81.1 93.4 82.3 91.9 82.6 90.4 82.5 88.8 82.5 87.4 82 86.2 80.9 84.8 79.5 84.3 77.8 84.4 75.9 84.6 73.1 86.6 70.9 89.6 70.4 91.1 70.2 92.6 70.3 94 71.2 94.3 71.5 94.5 71.7 94.9 72 94.9 71.6 94.9 71.2 94.9 70.8 94.9 70.6 94.9 70.5 95.2 70.5 96.2 70.5 97.1 70.5 98.1 70.5 98.2 70.5 98.3 70.5 98.4 70.5 98.4 70.6 98.4 70.7 98.4 70.8 98.4 74.4 98.4 77.9 98.4 81.4 98.4 82.9 98 84.4 97.1 85.6 96.2 86.8 95 87.4 93.5 87.7 91.2 88.1 88.9 87.9 86.7 87.1 86.1 86.8 85.6 86.5 85.1 86.2ZM91.4 73.4C91.2 73.4 90.9 73.4 90.7 73.4 89.5 73.7 88.6 74.3 88.3 75.5 88 76.7 88.2 77.8 89.1 78.6 89.8 79.3 90.8 79.6 91.8 79.5 94.6 79.3 95.3 76.6 94.4 75 93.8 73.8 92.7 73.4 91.4 73.4Z" class="a"/><path d="M46.4 83.1H42.9V81.8C42.8 81.8 42.8 81.9 42.8 81.9 41.9 82.8 40.7 83.3 39.5 83.3 37.6 83.4 35.9 82.9 34.6 81.7 33.6 80.7 33 79.5 32.8 78.1 32.5 76.4 32.7 74.8 33.6 73.3 34.6 71.5 36.1 70.6 38.1 70.4 39.3 70.2 40.5 70.3 41.5 70.9 41.9 71.1 42.3 71.4 42.7 71.7 42.7 71.4 42.7 71.1 42.7 70.7 42.7 70.6 42.8 70.5 42.9 70.5 44.1 70.5 45.2 70.5 46.4 70.5V83.1H46.4ZM42.8 76.7C42.8 76.5 42.8 76.2 42.7 76 42.5 74.7 41.7 73.8 40.4 73.5 39.2 73.2 38 73.5 37.2 74.5 36.4 75.4 36.3 76.6 36.5 77.7 37 80.5 40 80.9 41.5 79.7 42.5 79 42.8 78 42.8 76.7Z" class="a"/><path d="M69.5 70.5H73V71.9C73 71.9 73.1 71.8 73.1 71.8 74.4 70.6 76 70.2 77.8 70.4 78.8 70.4 79.8 70.8 80.6 71.5 81.6 72.3 82.1 73.3 82.3 74.5 82.3 75.1 82.4 75.6 82.4 76.1 82.4 78.3 82.4 80.5 82.4 82.8V83.1H78.7V82.8C78.7 80.7 78.7 78.6 78.7 76.5 78.7 76 78.6 75.6 78.5 75.1 78.2 74.3 77.7 73.7 76.8 73.6 75.6 73.4 74.6 73.6 73.8 74.6 73.3 75.2 73.1 75.9 73.1 76.6 73.1 78.7 73.1 80.7 73.1 82.8 73.1 82.9 73.1 83 73.1 83.1H69.5V70.5Z" class="a"/><path d="M48.2 83.1C49.8 81 51.4 78.9 53 76.8 51.5 74.7 49.9 72.6 48.3 70.5 48.5 70.5 48.5 70.5 48.6 70.5 49.8 70.5 51 70.5 52.2 70.5 52.4 70.5 52.5 70.6 52.6 70.7 53.4 71.9 54.3 73 55.1 74.2 55.2 74.1 55.2 74 55.3 74 56.1 72.9 56.9 71.8 57.7 70.7 57.8 70.6 57.9 70.5 58.1 70.5 59.2 70.5 60.4 70.5 61.5 70.5 61.5 70.5 61.6 70.5 61.8 70.5 60.2 72.6 58.6 74.6 57.1 76.7 58.7 78.8 60.3 81 62 83.1 61.8 83.2 61.7 83.2 61.6 83.2 60.4 83.2 59.2 83.2 58 83.2 57.8 83.2 57.7 83.1 57.6 82.9 56.8 81.8 56 80.7 55.2 79.6 55.2 79.5 55.1 79.4 55 79.3 54.5 80 54 80.7 53.5 81.4 53.1 81.9 52.7 82.4 52.3 83 52.2 83.1 52.1 83.1 52 83.1 50.8 83.2 49.5 83.1 48.3 83.1 48.3 83.1 48.3 83.1 48.2 83.1Z" class="a"/><path d="M65.1 83.3C63.7 83.3 62.8 82.3 62.8 81 62.9 79.7 63.9 78.7 65.2 78.8 66.5 78.8 67.4 79.8 67.4 81.2 67.4 82.4 66.3 83.4 65.1 83.3Z" class="a"/><path d="M71.5 37.3C71.5 27.9 64.1 20.3 54.7 19.9 54.6 19.9 54.5 19.9 54.4 19.9 54.3 19.9 54.2 19.9 54.2 19.9 54.1 19.9 54.1 19.9 54.1 19.9 54.1 19.9 54.1 19.9 54 19.9 47.7 19.9 42.2 23.3 39.2 28.3 36.6 32.6 35.7 37.9 37.5 43 38.6 46.3 40.3 49.2 42.3 51.9 44.7 55.3 47.5 58.3 50.5 61.1 51.7 62.2 52.8 63.2 54 64.2 54.2 64.1 54.3 64 54.4 64 58.4 60.6 62.1 56.8 65.3 52.6 67.4 49.8 69.2 46.8 70.4 43.5 70.5 43.2 70.6 42.9 70.7 42.6 71.2 41 71.5 39.2 71.5 37.3Z" class="a"/><path d="M61.1 30.2C61.2 30.2 61.3 30.2 61.4 30.3 61.5 30.3 61.6 30.4 61.7 30.4 61.7 30.5 61.8 30.6 61.8 30.7 61.9 30.8 61.9 30.9 61.9 31V43.9C61.9 44 61.9 44 61.8 44.1 61.8 44.2 61.8 44.2 61.7 44.3 61.7 44.3 61.6 44.3 61.6 44.4 61.5 44.4 61.5 44.4 61.4 44.4H59.3C59.3 44.4 59.2 44.4 59.1 44.4 59.1 44.3 59 44.3 59 44.3 58.9 44.2 58.9 44.2 58.9 44.1 58.9 44 58.8 44 58.8 43.9V35.1C58.8 35.1 58.8 35 58.8 35 58.8 35 58.8 35 58.8 35 58.8 34.9 58.8 34.9 58.7 34.9 58.7 34.9 58.7 34.9 58.7 34.9 58.7 34.9 58.7 34.9 58.7 34.9 58.6 34.9 58.6 34.9 58.6 34.9 58.6 34.9 58.6 34.9 58.6 34.9 58.6 34.9 58.6 34.9 58.6 35L55.9 37.7C55.9 37.7 55.8 37.8 55.8 37.9 55.8 37.9 55.7 38 55.7 38 55.7 38.1 55.7 38.1 55.7 38.2 55.7 38.3 55.6 38.3 55.6 38.4V43.9C55.6 43.9 55.6 44 55.6 44.1 55.6 44.1 55.5 44.2 55.5 44.2 55.5 44.3 55.4 44.3 55.3 44.3 55.3 44.4 55.2 44.4 55.2 44.4H53.1C53 44.4 53 44.4 52.9 44.3 52.9 44.3 52.8 44.3 52.8 44.2 52.7 44.2 52.7 44.1 52.7 44.1 52.6 44 52.6 44 52.6 43.9V38.4C52.6 38.3 52.6 38.3 52.6 38.2 52.6 38.1 52.6 38.1 52.6 38 52.5 38 52.5 37.9 52.5 37.9 52.4 37.8 52.4 37.7 52.3 37.7L49.7 35C49.7 34.9 49.7 34.9 49.7 34.9 49.7 34.9 49.7 34.9 49.6 34.9 49.6 34.9 49.6 34.9 49.6 34.9 49.6 34.9 49.6 34.9 49.6 34.9 49.6 34.9 49.5 34.9 49.5 34.9 49.5 34.9 49.5 34.9 49.5 35 49.5 35 49.4 35 49.4 35 49.4 35 49.4 35.1 49.4 35.1V43.9C49.4 43.9 49.4 44 49.4 44.1 49.4 44.1 49.3 44.2 49.3 44.2 49.3 44.3 49.2 44.3 49.2 44.3 49.1 44.4 49 44.4 49 44.4H46.9C46.8 44.4 46.8 44.4 46.7 44.3 46.7 44.3 46.6 44.3 46.6 44.2 46.5 44.2 46.5 44.1 46.5 44.1 46.5 44 46.4 44 46.4 43.9V31C46.4 30.9 46.5 30.8 46.5 30.7 46.5 30.6 46.6 30.5 46.7 30.4 46.7 30.4 46.8 30.3 46.9 30.3 47 30.2 47.1 30.2 47.2 30.2H49.1C49.2 30.2 49.2 30.2 49.3 30.2 49.3 30.2 49.4 30.3 49.4 30.3 49.5 30.3 49.5 30.3 49.6 30.3 49.6 30.4 49.7 30.4 49.7 30.5L54 34.9C54 34.9 54 34.9 54 34.9 54 34.9 54.1 34.9 54.1 34.9 54.1 35 54.1 35 54.1 35 54.1 35 54.1 35 54.2 35 54.2 35 54.2 35 54.2 35 54.2 35 54.2 34.9 54.3 34.9 54.3 34.9 54.3 34.9 54.3 34.9 54.3 34.9 54.3 34.9 54.3 34.9L58.6 30.4C58.7 30.4 58.7 30.4 58.8 30.3 58.8 30.3 58.8 30.3 58.9 30.3 59 30.2 59 30.2 59.1 30.2 59.1 30.2 59.2 30.2 59.2 30.2L61.1 30.2Z" fill="white"/></svg>