<svg width="96" height="30" viewBox="0 0 96 30" fill="none" xmlns="http://www.w3.org/2000/svg">
<path fill-rule="evenodd" clip-rule="evenodd" d="M14.3469 6.1066C14.3323 6.12148 14.3203 6.46348 14.3203 6.86668C14.3203 7.49188 14.3114 7.60012 14.2603 7.60012C14.2087 7.60012 14.2003 7.7266 14.2003 8.50012C14.2003 9.37348 14.1979 9.40012 14.1201 9.40012C14.0428 9.40012 14.0402 9.42676 14.0402 10.2154C14.0402 10.9971 14.0368 11.0316 13.9603 11.0516C13.8832 11.0717 13.8801 11.1063 13.8801 11.9516C13.8801 12.7971 13.8772 12.8314 13.8002 12.8516C13.7236 12.8717 13.7203 12.9063 13.7203 13.6721C13.7203 14.3458 13.7107 14.4752 13.6603 14.4946C13.6094 14.514 13.6003 14.6523 13.6003 15.3987C13.6003 16.2533 13.5979 16.28 13.5201 16.28C13.4428 16.28 13.4402 16.3066 13.4402 17.1154C13.4402 17.917 13.4371 17.9516 13.3603 17.9717C13.2832 17.9916 13.2801 18.0262 13.2801 18.8468C13.2801 19.6606 13.2765 19.7031 13.1992 19.7513C13.1222 19.7993 13.1188 19.8363 13.1294 20.5109L13.1402 21.2201L15.1502 21.2304L17.1602 21.2408V20.7005C17.1602 20.1867 17.164 20.16 17.2401 20.16C17.3183 20.16 17.3203 20.1334 17.3203 19.04C17.3203 17.9468 17.3222 17.9201 17.4002 17.9201C17.4782 17.9201 17.4801 17.8935 17.4801 16.8046C17.4801 15.7229 17.4825 15.6888 17.5603 15.6684C17.6375 15.6483 17.6402 15.614 17.6402 14.5875C17.6402 13.5473 17.6416 13.5279 17.7201 13.5485C17.7827 13.5648 17.8003 13.603 17.8003 13.7247C17.8003 13.836 17.8171 13.88 17.8603 13.88C17.9056 13.88 17.9203 13.9294 17.9203 14.0837C17.9203 14.2539 17.9335 14.2911 18.0002 14.3084C18.0676 14.3261 18.0801 14.3631 18.0801 14.5448C18.0801 14.7334 18.0902 14.76 18.1603 14.76C18.2306 14.76 18.2402 14.7867 18.2402 14.9837C18.2402 15.1738 18.2522 15.2108 18.3201 15.2285C18.3878 15.246 18.4003 15.283 18.4003 15.4647C18.4003 15.6296 18.4142 15.68 18.4603 15.68C18.5032 15.68 18.5203 15.7241 18.5203 15.8367C18.5203 16.0323 18.5524 16.1201 18.6244 16.1201C18.6652 16.1201 18.6801 16.1787 18.6801 16.34C18.6801 16.5334 18.6899 16.56 18.7603 16.56C18.8294 16.56 18.8402 16.5867 18.8402 16.7585C18.8402 16.9162 18.8567 16.9661 18.9201 17C18.9837 17.034 19.0003 17.0837 19.0003 17.2426C19.0003 17.3835 19.018 17.4495 19.0603 17.4656C19.0994 17.4807 19.1203 17.5428 19.1203 17.6444C19.1203 17.7466 19.1476 17.8275 19.2002 17.88C19.2458 17.9256 19.2801 18.0135 19.2801 18.0838C19.2801 18.1738 19.3019 18.2132 19.3603 18.2285C19.4277 18.246 19.4402 18.283 19.4402 18.4647C19.4402 18.6533 19.45 18.68 19.5201 18.68C19.5904 18.68 19.6003 18.7066 19.6003 18.9V19.1201H20.9788C22.5232 19.1201 22.4402 19.1367 22.4402 18.8268C22.4402 18.7409 22.4627 18.68 22.5002 18.6656C22.5424 18.6495 22.5602 18.5835 22.5602 18.4426C22.5602 18.2837 22.5765 18.234 22.6401 18.2C22.7037 18.1661 22.7203 18.1162 22.7203 17.9585C22.7203 17.7867 22.7308 17.76 22.8002 17.76C22.8705 17.76 22.8801 17.7334 22.8801 17.54C22.8801 17.3787 22.895 17.3201 22.936 17.3201C23.0078 17.3201 23.0402 17.2323 23.0402 17.0367C23.0402 16.9241 23.057 16.88 23.1002 16.88C23.146 16.88 23.1602 16.8296 23.1602 16.6647C23.1602 16.483 23.1727 16.446 23.2401 16.4285C23.3083 16.4108 23.3203 16.3738 23.3203 16.1837C23.3203 15.9867 23.3296 15.96 23.4002 15.96C23.4703 15.96 23.4801 15.9334 23.4801 15.7448C23.4801 15.5631 23.4926 15.5261 23.5603 15.5084C23.627 15.4911 23.6402 15.4539 23.6402 15.2837C23.6402 15.1294 23.6546 15.08 23.7002 15.08C23.7463 15.08 23.7602 15.0288 23.7602 14.8601C23.7602 14.6667 23.7698 14.64 23.8401 14.64C23.9068 14.64 23.9203 14.6134 23.9203 14.48C23.9203 14.37 23.9375 14.3201 23.9759 14.3201C24.0479 14.3201 24.0801 14.2323 24.0801 14.0367C24.0801 13.9505 24.0988 13.88 24.1214 13.88C24.1442 13.88 24.179 13.8396 24.1989 13.79C24.2301 13.7124 24.2354 13.7213 24.2375 13.8538C24.2397 13.9726 24.2584 14.0122 24.3201 14.0285C24.3979 14.0487 24.4003 14.083 24.4003 15.1647C24.4003 16.1295 24.4082 16.28 24.4603 16.28C24.5121 16.28 24.5203 16.4244 24.5203 17.34C24.5203 18.3466 24.5241 18.404 24.6002 18.48C24.6763 18.5561 24.6801 18.6135 24.6801 19.6438C24.6801 20.6938 24.6827 20.7281 24.7603 20.7485C24.8287 20.7663 24.8402 20.803 24.8402 21.0046V21.24H26.8603H28.8801V20.72C28.8801 20.2268 28.876 20.2001 28.8002 20.2001C28.7227 20.2001 28.7203 20.1735 28.7203 19.3162C28.7203 18.4661 28.7171 18.4318 28.6401 18.4116C28.5635 18.3915 28.5602 18.3572 28.5602 17.574C28.5602 16.8852 28.5508 16.754 28.5002 16.7345C28.4498 16.7151 28.4402 16.5869 28.4397 15.9257C28.439 15.0948 28.4246 14.96 28.3355 14.96C28.2902 14.96 28.2801 14.8109 28.2801 14.1363C28.2801 13.3462 28.277 13.3116 28.2002 13.2917C28.1231 13.2716 28.1203 13.237 28.1203 12.3917C28.1203 11.5462 28.1171 11.5116 28.0401 11.4917C27.9635 11.4716 27.9602 11.437 27.9602 10.6553C27.9602 9.9574 27.9515 9.84004 27.9002 9.84004C27.8486 9.84004 27.8402 9.71524 27.8402 8.95636C27.8402 8.10628 27.8371 8.07172 27.7603 8.05156C27.6835 8.03164 27.6801 7.99708 27.6801 7.2154C27.6801 6.42676 27.6775 6.40012 27.6002 6.40012C27.5335 6.40012 27.5203 6.37348 27.5203 6.24004V6.07996H25.5801H23.6402V6.24004C23.6402 6.37348 23.6267 6.40012 23.5603 6.40012C23.4971 6.40012 23.4801 6.42676 23.4801 6.52564C23.4801 6.59476 23.452 6.6718 23.4175 6.697C23.3831 6.7222 23.3445 6.82324 23.3315 6.9214C23.3188 7.01956 23.284 7.11436 23.2543 7.13212C23.2192 7.15276 23.2003 7.24108 23.2003 7.38196C23.2003 7.57348 23.1904 7.60012 23.1201 7.60012C23.0498 7.60012 23.0402 7.62676 23.0402 7.81996C23.0402 8.0134 23.0306 8.04004 22.9603 8.04004C22.8935 8.04004 22.8801 8.06668 22.8801 8.20012C22.8801 8.30956 22.8628 8.35996 22.8249 8.35996C22.7618 8.35996 22.7215 8.47996 22.7207 8.67004C22.7203 8.7586 22.7011 8.80012 22.6603 8.80012C22.6142 8.80012 22.6003 8.85124 22.6003 9.01996C22.6003 9.2134 22.5904 9.24004 22.5201 9.24004C22.45 9.24004 22.4402 9.26668 22.4402 9.45532C22.4402 9.637 22.4277 9.67396 22.3603 9.69172C22.294 9.709 22.2801 9.7462 22.2801 9.90676C22.2801 10.0575 22.2623 10.112 22.2002 10.1508C22.1375 10.19 22.1203 10.244 22.1203 10.4004C22.1203 10.5512 22.1054 10.6001 22.0603 10.6001C22.0142 10.6001 22.0003 10.6512 22.0003 10.82C22.0003 11.0134 21.9904 11.04 21.9201 11.04C21.85 11.04 21.8402 11.0667 21.8402 11.2553C21.8402 11.437 21.8277 11.474 21.7603 11.4917C21.6921 11.5095 21.6801 11.5462 21.6801 11.7363C21.6801 11.9002 21.6655 11.96 21.6249 11.96C21.5618 11.96 21.5215 12.08 21.5207 12.27C21.5203 12.3586 21.5011 12.4001 21.4603 12.4001C21.4142 12.4001 21.4003 12.4505 21.4003 12.6154C21.4003 12.7971 21.3878 12.834 21.3201 12.8516C21.2541 12.8688 21.2402 12.9063 21.2402 13.0666C21.2402 13.2176 21.2224 13.272 21.1603 13.3107C21.0935 13.3524 21.0801 13.404 21.0801 13.6203C21.0801 13.8533 21.0719 13.88 21.0002 13.88C20.9299 13.88 20.9203 13.8533 20.9203 13.6601C20.9203 13.4667 20.9104 13.44 20.8401 13.44C20.7698 13.44 20.7602 13.4134 20.7602 13.22C20.7602 13.0512 20.7463 13.0001 20.7002 13.0001C20.6548 13.0001 20.6402 12.9512 20.6402 12.8004C20.6402 12.644 20.6229 12.59 20.5603 12.5508C20.4981 12.512 20.4801 12.4575 20.4801 12.3068C20.4801 12.1462 20.4664 12.109 20.4002 12.0917C20.3327 12.074 20.3203 12.037 20.3203 11.8553C20.3203 11.6667 20.3102 11.64 20.2401 11.64C20.1698 11.64 20.1602 11.6134 20.1602 11.42C20.1602 11.2512 20.1463 11.2001 20.1002 11.2001C20.0548 11.2001 20.0402 11.1512 20.0402 11.0004C20.0402 10.844 20.0229 10.79 19.9603 10.7508C19.8981 10.712 19.8801 10.6575 19.8801 10.5068C19.8801 10.3462 19.8664 10.309 19.8002 10.2917C19.7327 10.274 19.7203 10.237 19.7203 10.0553C19.7203 9.86668 19.7102 9.84004 19.6401 9.84004C19.5698 9.84004 19.5602 9.8134 19.5602 9.61996C19.5602 9.45124 19.5463 9.40012 19.5002 9.40012C19.4548 9.40012 19.4402 9.35116 19.4402 9.20044C19.4402 9.04396 19.4229 8.98996 19.3603 8.95084C19.2981 8.91196 19.2801 8.85748 19.2801 8.70676C19.2801 8.5462 19.2664 8.509 19.2002 8.49172C19.1337 8.4742 19.1203 8.437 19.1203 8.27164C19.1203 8.10628 19.1066 8.06908 19.0401 8.05156C18.9775 8.03524 18.9602 7.99708 18.9602 7.8754C18.9602 7.76404 18.9431 7.72012 18.9002 7.72012C18.8546 7.72012 18.8402 7.67068 18.8402 7.51636C18.8402 7.3462 18.827 7.309 18.7603 7.29172C18.6938 7.2742 18.6801 7.237 18.6801 7.07164C18.6801 6.90628 18.6667 6.86908 18.6002 6.85156C18.5337 6.83428 18.5203 6.79708 18.5203 6.63172C18.5203 6.46612 18.5066 6.42892 18.4401 6.41164C18.3775 6.39532 18.3602 6.35716 18.3602 6.23548V6.07996H16.3667C15.2704 6.07996 14.3615 6.09196 14.3469 6.1066ZM55.6003 8.55964V10.0001H54.6201H53.6402V11.2601V12.5201H54.6201H55.6003V15.44C55.6003 18.0089 55.6075 18.36 55.6603 18.36C55.7083 18.36 55.7203 18.42 55.7203 18.66C55.7203 18.9334 55.7272 18.96 55.8002 18.96C55.8703 18.96 55.8801 18.9867 55.8801 19.1772C55.8801 19.3594 55.8931 19.3988 55.9603 19.4201C56.0198 19.4388 56.0402 19.4806 56.0402 19.5828C56.0402 19.6935 56.0558 19.7201 56.1201 19.7201C56.1849 19.7201 56.2003 19.7468 56.2003 19.86C56.2003 19.9527 56.219 20 56.2555 20C56.2859 20 56.3203 20.036 56.3318 20.0801C56.3433 20.124 56.3815 20.16 56.4165 20.16C56.4535 20.16 56.4801 20.1934 56.4801 20.24C56.4801 20.2935 56.5067 20.3201 56.5603 20.3201C56.6135 20.3201 56.6402 20.3468 56.6402 20.4C56.6402 20.4533 56.6668 20.48 56.7201 20.48C56.7736 20.48 56.8003 20.5066 56.8003 20.5601C56.8003 20.6045 56.8269 20.64 56.8603 20.64C56.8931 20.64 56.9203 20.6669 56.9203 20.7C56.9203 20.7334 56.9558 20.76 57.0002 20.76C57.0535 20.76 57.0801 20.7867 57.0801 20.84C57.0801 20.8935 57.1067 20.9201 57.1603 20.9201C57.2135 20.9201 57.2402 20.9468 57.2402 21C57.2402 21.0533 57.2668 21.08 57.3201 21.08C57.3643 21.08 57.4003 21.1061 57.4003 21.1383C57.4003 21.1731 57.4564 21.2069 57.5402 21.2228C57.6208 21.2379 57.6801 21.2727 57.6801 21.3048C57.6801 21.3521 58.0139 21.3591 59.8502 21.3504L62.0203 21.3401V20.0201V18.7001L61.0502 18.6893L60.0801 18.6785V18.5556C60.0801 18.4661 60.0583 18.4268 60.0002 18.4116C59.9404 18.396 59.9203 18.3572 59.9203 18.258C59.9203 18.1606 59.8989 18.1186 59.8401 18.1001C59.7681 18.0771 59.7602 18.0394 59.7602 17.7161C59.7602 17.4344 59.7472 17.3525 59.7002 17.3345C59.6479 17.3144 59.6402 17.0084 59.6402 14.9158V12.5201H60.8407H62.0414L62.0308 11.27L62.0203 10.02L60.8306 10.0095L59.6411 9.99892L59.6306 8.56948L59.6203 7.14004L57.6103 7.12972L55.6003 7.1194V8.55964ZM46.0003 10.0601C46.0003 10.1009 45.9587 10.1201 45.8702 10.1206C45.6801 10.1213 45.5601 10.1616 45.5601 10.2248C45.5601 10.2615 45.5121 10.28 45.4163 10.28C45.3064 10.28 45.2678 10.2987 45.2517 10.3601C45.2402 10.4043 45.1972 10.44 45.1555 10.44C45.1067 10.44 45.0801 10.4684 45.0801 10.52C45.0801 10.5848 45.0535 10.6001 44.9402 10.6001C44.8425 10.6001 44.8003 10.6181 44.8003 10.6601C44.8003 10.693 44.7715 10.7201 44.7364 10.7201C44.7014 10.7201 44.6632 10.7561 44.6517 10.8C44.6402 10.8442 44.5972 10.88 44.5555 10.88C44.5084 10.88 44.4801 10.9083 44.4801 10.9553C44.4801 10.9971 44.4443 11.04 44.4002 11.0516C44.3563 11.0631 44.3203 11.1012 44.3203 11.1363C44.3203 11.1713 44.2931 11.2001 44.2603 11.2001C44.2187 11.2001 44.2003 11.2416 44.2003 11.3355C44.2003 11.437 44.1803 11.4759 44.1201 11.4917C44.0433 11.5116 44.0402 11.5462 44.0402 12.38C44.0402 13.214 44.0433 13.2483 44.1201 13.2684C44.1803 13.2843 44.2003 13.3229 44.2003 13.4247C44.2003 13.5183 44.2187 13.56 44.2603 13.56C44.2936 13.56 44.3203 13.5956 44.3203 13.64C44.3203 13.6935 44.3469 13.7201 44.4002 13.7201C44.4631 13.7201 44.4801 13.7468 44.4801 13.8437C44.4801 13.934 44.5019 13.9733 44.5603 13.9884C44.6044 14 44.6402 14.0429 44.6402 14.0847C44.6402 14.1334 44.6685 14.16 44.7201 14.16C44.7736 14.16 44.8003 14.1867 44.8003 14.24C44.8003 14.2846 44.8269 14.3201 44.8603 14.3201C44.8931 14.3201 44.9203 14.3487 44.9203 14.3837C44.9203 14.4188 44.9563 14.4569 45.0002 14.4684C45.0443 14.48 45.0801 14.5229 45.0801 14.5647C45.0801 14.6134 45.1084 14.64 45.1603 14.64C45.2047 14.64 45.2402 14.6667 45.2402 14.7C45.2402 14.7334 45.2757 14.76 45.3201 14.76C45.3736 14.76 45.4003 14.7867 45.4003 14.84C45.4003 14.8846 45.4269 14.9201 45.4603 14.9201C45.4936 14.9201 45.5203 14.9556 45.5203 15C45.5203 15.0533 45.5469 15.08 45.6002 15.08C45.6631 15.08 45.6801 15.1066 45.6801 15.2038C45.6801 15.2919 45.7022 15.3332 45.7564 15.3476C45.7984 15.3584 45.8419 15.4018 45.8527 15.4438C45.8637 15.4858 45.9014 15.5201 45.9364 15.5201C45.9715 15.5201 46.0003 15.5427 46.0003 15.5703C46.0003 15.5979 46.0631 15.6785 46.1402 15.7491C46.2172 15.8196 46.2801 15.8962 46.2801 15.9188C46.2801 15.9416 46.3161 15.96 46.3603 15.96C46.4135 15.96 46.4402 15.9867 46.4402 16.04C46.4402 16.0935 46.4668 16.1201 46.5201 16.1201C46.5736 16.1201 46.6003 16.1468 46.6003 16.2C46.6003 16.244 46.625 16.28 46.6555 16.28C46.6859 16.28 46.7203 16.316 46.7318 16.3601C46.7433 16.404 46.7815 16.44 46.8165 16.44C46.8515 16.44 46.8801 16.4669 46.8801 16.5C46.8801 16.5334 46.9156 16.56 46.9603 16.56C47.0135 16.56 47.0402 16.5867 47.0402 16.64C47.0402 16.6935 47.0668 16.7201 47.1201 16.7201C47.1736 16.7201 47.2003 16.7468 47.2003 16.8C47.2003 16.844 47.225 16.88 47.2555 16.88C47.2859 16.88 47.3203 16.916 47.3318 16.9601C47.3433 17.004 47.3815 17.04 47.4165 17.04C47.4525 17.04 47.4801 17.0732 47.4801 17.1168C47.4801 17.2359 47.5233 17.3201 47.5845 17.3201C47.6152 17.3201 47.6402 17.3487 47.6402 17.3837C47.6402 17.4188 47.6762 17.4569 47.7201 17.4684C47.7643 17.48 47.8003 17.5143 47.8003 17.5448C47.8003 17.5752 47.8271 17.6 47.8603 17.6C47.8931 17.6 47.9203 17.6288 47.9203 17.6638C47.9203 17.6988 47.9563 17.737 48.0002 17.7485C48.0443 17.76 48.0801 17.803 48.0801 17.8448C48.0801 17.8935 48.1084 17.9201 48.1603 17.9201C48.2135 17.9201 48.2402 17.9468 48.2402 18C48.2402 18.0533 48.2668 18.08 48.3201 18.08C48.3736 18.08 48.4003 18.1066 48.4003 18.1601C48.4003 18.2045 48.4269 18.24 48.4603 18.24C48.4931 18.24 48.5203 18.2669 48.5203 18.3C48.5203 18.3334 48.5558 18.36 48.6002 18.36C48.6535 18.36 48.6801 18.3867 48.6801 18.44C48.6801 18.4935 48.7067 18.5201 48.7603 18.5201C48.8133 18.5201 48.8402 18.5468 48.8402 18.5998C48.8402 18.6783 48.8068 18.6795 46.3701 18.6898L43.9003 18.7001L43.8897 19.97L43.8791 21.24H47.8435C51.7739 21.24 51.8078 21.2393 51.8287 21.1601C51.8402 21.116 51.8745 21.08 51.9047 21.08C51.9352 21.08 51.9602 21.044 51.9602 21C51.9602 20.9355 51.9868 20.9201 52.0975 20.9201C52.1997 20.9201 52.2412 20.8995 52.2602 20.84C52.2741 20.796 52.3091 20.76 52.3382 20.76C52.3672 20.76 52.4003 20.724 52.4119 20.6801C52.4234 20.636 52.4613 20.6 52.4963 20.6C52.5427 20.6 52.5602 20.5616 52.5602 20.46C52.5602 20.3468 52.5753 20.3201 52.6401 20.3201C52.6936 20.3201 52.7203 20.2935 52.7203 20.24C52.7203 20.1867 52.7469 20.16 52.8002 20.16C52.8633 20.16 52.8801 20.1334 52.8801 20.0345C52.8801 19.9611 52.9091 19.8876 52.9502 19.8576C53.0051 19.8176 53.0231 19.7328 53.0342 19.4633C53.045 19.2027 53.0618 19.1201 53.1043 19.1201C53.1467 19.1201 53.1602 19.0532 53.1602 18.84C53.1602 18.6178 53.1477 18.56 53.1002 18.56C53.0522 18.56 53.0402 18.4997 53.0402 18.2564C53.0402 17.9861 53.0313 17.9501 52.9603 17.9316C52.9 17.9158 52.8801 17.8772 52.8801 17.7754C52.8801 17.6667 52.8645 17.64 52.8002 17.64C52.7351 17.64 52.7203 17.6134 52.7203 17.4963C52.7203 17.3861 52.7015 17.3477 52.6401 17.3316C52.5832 17.3168 52.5602 17.2772 52.5602 17.1941C52.5602 17.13 52.535 17.0679 52.504 17.0561C52.4733 17.0441 52.439 16.9997 52.4279 16.9572C52.4167 16.9148 52.3811 16.88 52.3485 16.88C52.3161 16.88 52.2801 16.844 52.2686 16.8C52.2571 16.7561 52.2189 16.7201 52.1839 16.7201C52.1488 16.7201 52.1203 16.693 52.1203 16.6601C52.1203 16.6268 52.0847 16.6001 52.0401 16.6001C51.9868 16.6001 51.9602 16.5735 51.9602 16.52C51.9602 16.476 51.9352 16.44 51.9047 16.44C51.8728 16.44 51.8378 16.3803 51.8229 16.3001C51.8083 16.2228 51.7725 16.16 51.743 16.16C51.7137 16.16 51.6801 16.124 51.6686 16.08C51.6571 16.0361 51.6211 16.0001 51.5887 16.0001C51.556 16.0001 51.52 15.9641 51.5085 15.92C51.497 15.876 51.4591 15.84 51.424 15.84C51.389 15.84 51.3602 15.8175 51.3602 15.7899C51.3602 15.762 51.2971 15.6816 51.2203 15.6111C51.1432 15.5403 51.0801 15.464 51.0801 15.4412C51.0801 15.4186 51.0441 15.4001 51.0002 15.4001C50.9469 15.4001 50.9203 15.3735 50.9203 15.32C50.9203 15.2667 50.8936 15.24 50.8401 15.24C50.7868 15.24 50.7602 15.2134 50.7602 15.1601C50.7602 15.116 50.7352 15.08 50.7047 15.08C50.6745 15.08 50.6402 15.044 50.6287 15C50.6171 14.9561 50.579 14.9201 50.5439 14.9201C50.5089 14.9201 50.4801 14.893 50.4801 14.8601C50.4801 14.8268 50.4446 14.8001 50.4002 14.8001C50.3469 14.8001 50.3203 14.7735 50.3203 14.72C50.3203 14.6667 50.2936 14.64 50.2401 14.64C50.176 14.64 50.1602 14.6134 50.1602 14.5047C50.1602 14.4029 50.1403 14.3643 50.0803 14.3484C50.0361 14.3369 50.0001 14.2988 50.0001 14.2637C50.0001 14.2287 49.9754 14.2001 49.9449 14.2001C49.9144 14.2001 49.8801 14.1641 49.8686 14.12C49.8571 14.076 49.8189 14.04 49.7839 14.04C49.7469 14.04 49.7203 14.0067 49.7203 13.9601C49.7203 13.9066 49.6936 13.88 49.6401 13.88C49.595 13.88 49.5602 13.8533 49.5602 13.8188C49.5602 13.7852 49.5331 13.7472 49.5002 13.7345C49.4671 13.7218 49.4402 13.6865 49.4402 13.6558C49.4402 13.6251 49.4042 13.6001 49.3603 13.6001C49.3067 13.6001 49.2801 13.5735 49.2801 13.52C49.2801 13.4667 49.2535 13.44 49.2002 13.44C49.1469 13.44 49.1203 13.4134 49.1203 13.3601C49.1203 13.3066 49.0936 13.28 49.0401 13.28C48.9868 13.28 48.9602 13.2533 48.9602 13.2C48.9602 13.1556 48.9335 13.1201 48.9002 13.1201C48.8671 13.1201 48.8402 13.093 48.8402 13.0601C48.8402 13.0268 48.8047 13.0001 48.7603 13.0001C48.6991 13.0001 48.6801 12.9735 48.6801 12.8873C48.6801 12.8084 48.6371 12.7368 48.5363 12.6473L48.3926 12.5201H50.5564H52.7203V11.3201V10.1201H52.3401C52.0291 10.1201 51.9602 10.1091 51.9602 10.0601C51.9602 10.0073 51.6023 10.0001 48.9801 10.0001C46.3579 10.0001 46.0003 10.0073 46.0003 10.0601ZM76.6003 15.6204V21.2408L78.6103 21.2304L80.6203 21.2201L80.6303 17.25L80.6407 13.28H82.5004H84.3602V11.64V10.0001H83.6203C83.0066 10.0001 82.8801 10.0097 82.8801 10.057C82.8801 10.1031 82.7716 10.1165 82.3168 10.1271C81.8361 10.1381 81.7461 10.1504 81.7024 10.2101C81.6662 10.2596 81.5961 10.28 81.4619 10.28C81.3064 10.28 81.269 10.2944 81.2517 10.3601C81.2359 10.4206 81.1972 10.44 81.0919 10.44C80.9863 10.44 80.9476 10.4595 80.9318 10.52C80.9202 10.5641 80.8859 10.6001 80.8555 10.6001C80.825 10.6001 80.8003 10.627 80.8003 10.6601C80.8003 10.7024 80.7575 10.7201 80.6565 10.7201C80.5463 10.7201 80.5077 10.7388 80.4919 10.8C80.4803 10.844 80.4443 10.88 80.4117 10.88C80.3793 10.88 80.3433 10.916 80.3318 10.9601C80.3203 11.0043 80.2773 11.04 80.2355 11.04C80.1868 11.04 80.1602 11.0117 80.1602 10.9601C80.1602 10.9155 80.1335 10.88 80.1002 10.88C80.0599 10.88 80.0402 10.8396 80.0402 10.7564C80.0402 10.6661 80.0183 10.6268 79.9603 10.6116C79.9159 10.6001 79.8801 10.5572 79.8801 10.5154C79.8801 10.4667 79.8518 10.44 79.8002 10.44C79.7351 10.44 79.7203 10.4134 79.7203 10.2963C79.7203 10.1861 79.7015 10.1477 79.6401 10.1316C79.5962 10.1201 79.5602 10.0858 79.5602 10.0553C79.5602 10.0092 79.3137 10.0001 78.0801 10.0001H76.6003V15.6204ZM30.6801 13.7201C30.6801 17.2935 30.6808 17.3201 30.7603 17.3201C30.8351 17.3201 30.8402 17.3468 30.8402 17.7387C30.8402 18.1162 30.8481 18.1613 30.9201 18.2C30.9851 18.2348 31.0003 18.2837 31.0003 18.4616C31.0003 18.6291 31.0142 18.68 31.0603 18.68C31.1035 18.68 31.1203 18.7246 31.1203 18.84C31.1203 18.9466 31.1469 19.0268 31.2002 19.08C31.2441 19.124 31.2801 19.2068 31.2801 19.2639C31.2801 19.334 31.306 19.3743 31.3603 19.3884C31.4207 19.4043 31.4402 19.4429 31.4402 19.5485C31.4402 19.6539 31.4596 19.6925 31.5201 19.7084C31.5645 19.7201 31.6003 19.7631 31.6003 19.8046C31.6003 19.8461 31.6252 19.88 31.6557 19.88C31.6876 19.88 31.7224 19.94 31.7375 20.0201C31.7534 20.1039 31.7872 20.16 31.822 20.16C31.8539 20.16 31.8801 20.196 31.8801 20.24C31.8801 20.2935 31.9067 20.3201 31.9603 20.3201C32.0135 20.3201 32.0402 20.3468 32.0402 20.4C32.0402 20.4533 32.0668 20.48 32.1201 20.48C32.1736 20.48 32.2003 20.5066 32.2003 20.5601C32.2003 20.6045 32.2269 20.64 32.2603 20.64C32.2931 20.64 32.3203 20.6669 32.3203 20.7C32.3203 20.7334 32.3558 20.76 32.4002 20.76C32.4535 20.76 32.4801 20.7867 32.4801 20.84C32.4801 20.8935 32.5067 20.9201 32.5603 20.9201C32.6135 20.9201 32.6402 20.9468 32.6402 21C32.6402 21.0533 32.6668 21.08 32.7201 21.08C32.7736 21.08 32.8003 21.1066 32.8003 21.1601C32.8003 21.2391 32.8267 21.24 35.0901 21.2396C37.4191 21.2388 37.5602 21.2331 37.5602 21.1354C37.5602 21.0956 37.6171 21.08 37.7639 21.08C37.9341 21.08 37.9711 21.0668 37.9886 21C38.0049 20.9374 38.0431 20.9201 38.1647 20.9201C38.2936 20.9201 38.3203 20.9062 38.3203 20.84C38.3203 20.7756 38.3469 20.76 38.4573 20.76C38.5543 20.76 38.5996 20.7396 38.6126 20.69C38.6301 20.6235 38.6311 20.6235 38.6356 20.69C38.6383 20.7317 38.6723 20.76 38.7201 20.76C38.7736 20.76 38.8003 20.7867 38.8003 20.84C38.8003 20.8846 38.8269 20.9201 38.8603 20.9201C38.8991 20.9201 38.9203 20.9592 38.9203 21.032C38.9203 21.2434 38.8924 21.24 40.6881 21.24H42.3602V15.68V10.1201H40.2801H38.2003V14.48V18.84H36.9801C35.7868 18.84 35.7602 18.8384 35.7602 18.7601C35.7602 18.716 35.7352 18.68 35.7047 18.68C35.6728 18.68 35.6378 18.6202 35.6229 18.54C35.6071 18.4563 35.5732 18.4001 35.5384 18.4001C35.5063 18.4001 35.4801 18.3641 35.4801 18.32C35.4801 18.2667 35.4535 18.24 35.4002 18.24C35.3356 18.24 35.3203 18.2134 35.3203 18.1028C35.3203 18.0005 35.2996 17.959 35.2401 17.94C35.1806 17.9211 35.1602 17.8796 35.1602 17.7773C35.1602 17.682 35.1419 17.64 35.1002 17.64C35.0546 17.64 35.0402 17.5908 35.0402 17.4363C35.0402 17.2661 35.027 17.2292 34.9603 17.2116C34.8854 17.1922 34.8801 17.1572 34.8801 16.6781C34.8801 16.2005 34.8746 16.1638 34.8002 16.14C34.7212 16.1148 34.7203 16.0796 34.7203 13.1172V10.1201H32.7002H30.6801V13.7201ZM66.4003 10.2C66.4003 10.2668 66.3736 10.28 66.2402 10.28C66.1067 10.28 66.0801 10.2934 66.0801 10.3601C66.0801 10.4228 66.0535 10.44 65.9565 10.44C65.8663 10.44 65.8269 10.4619 65.8118 10.52C65.8003 10.5644 65.7573 10.6001 65.7155 10.6001C65.674 10.6001 65.6402 10.6251 65.6402 10.6556C65.6402 10.6875 65.5804 10.7223 65.5003 10.7374C65.4163 10.7532 65.3601 10.7871 65.3601 10.8219C65.3601 10.8538 65.3241 10.88 65.2802 10.88C65.2269 10.88 65.2003 10.9066 65.2003 10.9601C65.2003 11.0134 65.1736 11.04 65.1201 11.04C65.0668 11.04 65.0402 11.0667 65.0402 11.12C65.0402 11.1735 65.0135 11.2001 64.9603 11.2001C64.9161 11.2001 64.8801 11.2248 64.8801 11.2553C64.8801 11.2858 64.8441 11.3201 64.8002 11.3316C64.7563 11.3432 64.7203 11.3813 64.7203 11.4164C64.7203 11.4514 64.6931 11.48 64.6603 11.48C64.6269 11.48 64.6003 11.5155 64.6003 11.5601C64.6003 11.6134 64.5736 11.64 64.5201 11.64C64.4668 11.64 64.4402 11.6667 64.4402 11.72C64.4402 11.7735 64.4135 11.8001 64.3603 11.8001C64.3161 11.8001 64.2801 11.8248 64.2801 11.8553C64.2801 11.8858 64.2441 11.9201 64.2002 11.9316C64.1563 11.9432 64.1203 11.9813 64.1203 12.0164C64.1203 12.0514 64.0931 12.08 64.0603 12.08C64.0168 12.08 64.0003 12.1246 64.0003 12.24C64.0003 12.3735 63.9868 12.4001 63.9201 12.4001C63.8762 12.4001 63.8402 12.4258 63.8402 12.4572C63.8402 12.4889 63.8042 12.5261 63.7603 12.54C63.7015 12.5588 63.6801 12.6005 63.6801 12.698C63.6801 12.7971 63.6599 12.836 63.6002 12.8516C63.5428 12.8667 63.5203 12.9063 63.5203 12.992C63.5203 13.0613 63.4951 13.1211 63.4603 13.1345C63.4168 13.1511 63.4003 13.219 63.4003 13.3788C63.4003 13.5735 63.3904 13.6001 63.3201 13.6001C63.25 13.6001 63.2402 13.6268 63.2402 13.8154C63.2402 13.9971 63.2277 14.034 63.1603 14.0516C63.0849 14.0712 63.0801 14.1063 63.0801 14.6516C63.0801 15.1971 63.0755 15.2319 63.0002 15.2516C62.9275 15.2705 62.9203 15.3063 62.9203 15.6363C62.9203 15.9466 62.932 16.0119 63.0002 16.08C63.0717 16.1516 63.0801 16.2135 63.0801 16.6601C63.0801 17.1334 63.0844 17.16 63.1603 17.16C63.2306 17.16 63.2402 17.1867 63.2402 17.3837C63.2402 17.5738 63.2522 17.6108 63.3201 17.6285C63.3878 17.646 63.4003 17.683 63.4003 17.8647C63.4003 18.0296 63.4142 18.08 63.4603 18.08C63.502 18.08 63.5203 18.1222 63.5203 18.2201C63.5203 18.3334 63.5354 18.36 63.6002 18.36C63.6669 18.36 63.6801 18.3867 63.6801 18.5201C63.6801 18.6533 63.6935 18.68 63.7603 18.68C63.8229 18.68 63.8402 18.7066 63.8402 18.8038C63.8402 18.8938 63.862 18.9332 63.9201 18.9485C63.9645 18.96 64.0003 19.003 64.0003 19.0448C64.0003 19.086 64.0252 19.1201 64.0557 19.1201C64.0876 19.1201 64.1224 19.1799 64.1375 19.26C64.1534 19.3438 64.1872 19.4 64.222 19.4C64.2539 19.4 64.2801 19.4288 64.2801 19.4638C64.2801 19.4988 64.3161 19.537 64.3603 19.5485C64.4044 19.56 64.4402 19.603 64.4402 19.6448C64.4402 19.6935 64.4685 19.7201 64.5201 19.7201C64.5736 19.7201 64.6003 19.7468 64.6003 19.8C64.6003 19.844 64.6173 19.88 64.6384 19.88C64.6879 19.88 64.8801 20.0722 64.8801 20.1219C64.8801 20.1428 64.9161 20.16 64.9603 20.16C65.0135 20.16 65.0402 20.1867 65.0402 20.24C65.0402 20.2918 65.0668 20.3201 65.1155 20.3201C65.1573 20.3201 65.2003 20.3559 65.2118 20.4C65.2269 20.4574 65.2663 20.48 65.3517 20.48C65.4371 20.48 65.4767 20.5028 65.4919 20.5601C65.5034 20.604 65.5413 20.64 65.5763 20.64C65.6114 20.64 65.6402 20.6669 65.6402 20.7C65.6402 20.742 65.6824 20.76 65.7801 20.76C65.8936 20.76 65.9203 20.7752 65.9203 20.84C65.9203 20.8896 65.9469 20.9201 65.9906 20.9201C66.0292 20.9201 66.0835 20.9561 66.1108 21C66.142 21.05 66.2042 21.08 66.2759 21.08C66.3573 21.08 66.3969 21.1035 66.4118 21.1601C66.4324 21.2393 66.4663 21.24 70.3763 21.24H74.3203V20.04V18.84H71.5401C68.7868 18.84 68.7602 18.8393 68.7602 18.7601C68.7602 18.716 68.7429 18.68 68.722 18.68C68.6723 18.68 68.4801 18.4877 68.4801 18.4383C68.4801 18.4172 68.4441 18.4001 68.4002 18.4001C68.3469 18.4001 68.3203 18.3735 68.3203 18.32C68.3203 18.2667 68.2936 18.24 68.2401 18.24C68.1868 18.24 68.1602 18.2134 68.1602 18.1601C68.1602 18.1155 68.1335 18.08 68.1002 18.08C68.0671 18.08 68.0402 18.0514 68.0402 18.0164C68.0402 17.9813 68.0042 17.9432 67.9603 17.9316C67.9 17.9158 67.8801 17.8772 67.8801 17.7754C67.8801 17.6667 67.8645 17.64 67.8002 17.64C67.7356 17.64 67.7203 17.6134 67.7203 17.5028C67.7203 17.4005 67.6996 17.359 67.6401 17.34C67.5806 17.3211 67.5602 17.2796 67.5602 17.1776V17.0405L71.0901 17.0302L74.6203 17.0201L74.6334 16.88C74.6407 16.8029 74.6721 16.7256 74.7033 16.7081C74.7477 16.6832 74.7602 16.5665 74.7602 16.178C74.7602 15.7066 74.7645 15.68 74.8401 15.68C74.9169 15.68 74.9203 15.6533 74.9203 15.0416C74.9203 14.4437 74.915 14.4 74.8401 14.36C74.7681 14.3213 74.7602 14.2762 74.7602 13.8975C74.7602 13.561 74.7482 13.4729 74.7002 13.4544C74.6647 13.4408 74.6399 13.3803 74.6397 13.3059C74.6387 13.1199 74.5979 13.0001 74.5355 13.0001C74.4986 13.0001 74.4801 12.9521 74.4801 12.8564C74.4801 12.7462 74.4614 12.7076 74.4002 12.6917C74.3402 12.6759 74.3203 12.637 74.3203 12.5355C74.3203 12.4268 74.3044 12.4001 74.2401 12.4001C74.1868 12.4001 74.1602 12.3735 74.1602 12.32C74.1602 12.2756 74.1335 12.24 74.1002 12.24C74.0601 12.24 74.0402 12.2 74.0402 12.1203C74.0402 12.044 74.0111 11.9825 73.9603 11.9508C73.9161 11.9232 73.8801 11.8781 73.8801 11.8505C73.8801 11.8227 73.8441 11.8001 73.8002 11.8001C73.7469 11.8001 73.7203 11.7735 73.7203 11.72C73.7203 11.6667 73.6936 11.64 73.6401 11.64C73.5868 11.64 73.5602 11.6134 73.5602 11.5601C73.5602 11.5155 73.5335 11.48 73.5002 11.48C73.4671 11.48 73.4402 11.4514 73.4402 11.4164C73.4402 11.3813 73.4042 11.3432 73.3603 11.3316C73.3161 11.3201 73.2801 11.2858 73.2801 11.2553C73.2801 11.2248 73.2441 11.2001 73.2002 11.2001C73.1469 11.2001 73.1203 11.1735 73.1203 11.12C73.1203 11.0667 73.0936 11.04 73.0401 11.04C72.9868 11.04 72.9602 11.0134 72.9602 10.9601C72.9602 10.8953 72.9335 10.88 72.8203 10.88C72.7067 10.88 72.6801 10.8648 72.6801 10.8C72.6801 10.7468 72.6535 10.7201 72.6002 10.7201C72.5558 10.7201 72.5203 10.6935 72.5203 10.6601C72.5203 10.627 72.4862 10.6001 72.4449 10.6001C72.4031 10.6001 72.3602 10.5644 72.3487 10.52C72.3335 10.4626 72.2939 10.44 72.2085 10.44C72.1231 10.44 72.0837 10.4175 72.0686 10.3601C72.0525 10.2987 72.0141 10.28 71.9039 10.28C71.7868 10.28 71.7602 10.2651 71.7602 10.2C71.7602 10.1208 71.7335 10.1201 69.0801 10.1201C66.4269 10.1201 66.4003 10.1208 66.4003 10.2ZM70.1203 12.6C70.1203 12.6516 70.1469 12.68 70.1956 12.68C70.2371 12.68 70.2801 12.7157 70.2919 12.7601C70.3034 12.804 70.3413 12.84 70.3763 12.84C70.421 12.84 70.4402 12.8772 70.4402 12.9639C70.4402 13.0539 70.462 13.0932 70.5201 13.1084C70.5645 13.1201 70.6003 13.1631 70.6003 13.2046C70.6003 13.2461 70.6271 13.28 70.6603 13.28C70.702 13.28 70.7203 13.3222 70.7203 13.4201C70.7203 13.5334 70.7354 13.56 70.8002 13.56C70.8707 13.56 70.8801 13.5867 70.8801 13.7837C70.8801 13.9738 70.8921 14.0108 70.9603 14.0285C71.033 14.0475 71.0402 14.083 71.0402 14.4248V14.8001H69.1603H67.2801V14.48C67.2801 14.2342 67.2931 14.16 67.3355 14.16C67.3979 14.16 67.4387 14.0403 67.4397 13.8543C67.4399 13.7799 67.4647 13.7192 67.5002 13.7055C67.5424 13.6894 67.5602 13.6234 67.5602 13.4813C67.5602 13.3066 67.5707 13.28 67.6401 13.28C67.6936 13.28 67.7203 13.2533 67.7203 13.2C67.7203 13.1561 67.7452 13.1201 67.7759 13.1201C67.8371 13.1201 67.8801 13.0359 67.8801 12.9168C67.8801 12.8732 67.9077 12.84 67.9439 12.84C67.979 12.84 68.0171 12.804 68.0287 12.7601C68.0402 12.716 68.0745 12.68 68.1047 12.68C68.1352 12.68 68.1602 12.644 68.1602 12.6C68.1602 12.5223 68.1868 12.5201 69.1401 12.5201C70.0936 12.5201 70.1203 12.5223 70.1203 12.6Z" fill="#333333"/>
</svg>
