<svg width="109" height="26" viewBox="0 0 109 26" fill="none" xmlns="http://www.w3.org/2000/svg">
<g clip-path="url(#clip0)">
<path fill-rule="evenodd" clip-rule="evenodd" d="M13.0027 26C20.184 26 26.0055 20.1797 26.0055 13C26.0055 5.8203 20.184 0 13.0027 0C5.82154 0 0 5.8203 0 13C0 20.1797 5.82154 26 13.0027 26ZM17.6954 19.8033C16.3604 20.7298 14.7397 21.2727 12.9923 21.2727C8.42819 21.2727 4.7283 17.5689 4.7283 13C4.7283 8.43114 8.42819 4.72732 12.9923 4.72732C17.5563 4.72732 21.2562 8.43114 21.2562 13C21.2562 14.02 21.0719 14.9968 20.7347 15.8989C19.4267 15.4242 17.9689 15.2823 16.6341 15.6028C17.1655 14.8615 17.4784 13.9525 17.4784 12.9704C17.4784 10.4738 15.4566 8.44997 12.9627 8.44997C10.4688 8.44997 8.44702 10.4738 8.44702 12.9704C8.44702 15.467 10.4688 17.4909 12.9627 17.4909C13.5376 17.4909 14.0873 17.3833 14.593 17.1873C15.8584 17.9214 16.9493 18.975 17.6954 19.8033ZM21.9982 18.6814C21.4086 19.6124 20.6785 20.4456 19.8376 21.1512C18.9165 19.9361 17.0545 18.1012 14.9992 16.9296C16.8983 15.5062 19.8401 16.4164 21.9982 18.6814Z" fill="#333333"/>
<g opacity="0.15">
<path opacity="0.15" d="M24.9335 7.82271C22.9345 3.22446 18.354 0.00733154 13.021 0C7.62619 0.00741881 3.00134 3.2996 1.04004 7.98342C2.22064 9.1041 3.55982 10.0593 5.02047 10.8119C5.97886 7.30482 9.18489 4.72729 12.9923 4.72729C16.7703 4.72729 19.9561 7.26515 20.9415 10.7308C22.4107 9.95468 23.7542 8.97249 24.9335 7.82271Z" fill="#333333"/>
<path opacity="0.15" d="M17.3993 12.1239C17.0034 10.0319 15.1676 8.44995 12.9627 8.44995C10.7472 8.44995 8.90438 10.0471 8.52051 12.154C9.91991 12.5209 11.3887 12.7162 12.9032 12.7162C14.4586 12.7162 15.9659 12.5102 17.3993 12.1239Z" fill="#333333"/>
</g>
<path d="M38.9178 6.29846C37.0787 6.29846 35.5669 6.92833 34.3828 8.16281C33.224 9.39732 32.6445 11.0349 32.6445 13.0756C32.6445 15.1163 33.224 16.7539 34.3828 17.9884C35.5669 19.2229 37.0787 19.8527 38.9178 19.8527C40.5555 19.8527 41.7648 19.3993 42.5962 18.4671V26H46.2492V6.5504H42.7975V7.91087C41.9915 6.82753 40.7066 6.29846 38.9178 6.29846ZM39.5224 9.4477C41.3615 9.4477 42.5962 10.7326 42.5962 12.7733V13.3779C42.5962 15.4186 41.3615 16.7035 39.5224 16.7035C37.6328 16.7035 36.3732 15.3682 36.3732 13.0756C36.3732 10.783 37.6328 9.4477 39.5224 9.4477Z" fill="#333333"/>
<path d="M60.1403 6.55042H56.4619V13.907C56.4619 15.4186 55.6308 16.4264 54.245 16.4264C52.8595 16.4264 52.154 15.595 52.154 13.9574V6.55042H48.4756V14.7384C48.4756 17.938 50.2895 19.8527 53.2876 19.8527C54.8748 19.8527 56.0087 19.3237 56.6636 18.2655V19.5756H60.1403V6.55042Z" fill="#333333"/>
<path d="M64.2899 0.0755797C62.4509 -0.0251958 61.3173 2.59496 62.7279 3.85464C63.5593 4.68604 65.0205 4.68604 65.8519 3.85464C66.2803 3.42637 66.5071 2.89729 66.5071 2.29263C66.5071 1.05814 65.5246 0.0755797 64.2899 0.0755797ZM66.1292 6.55038H62.4509V19.5756H66.1292V6.55038Z" fill="#333333"/>
<path d="M81.3754 0H77.7221V7.6841C76.9159 6.75194 75.6814 6.29844 74.044 6.29844C72.2047 6.29844 70.6932 6.92831 69.509 8.16279C68.35 9.3973 67.7705 11.0349 67.7705 13.0756C67.7705 15.1163 68.35 16.7539 69.509 17.9884C70.6932 19.2229 72.2047 19.8527 74.044 19.8527C75.7823 19.8527 77.1932 19.1725 77.9238 18.2403V19.5756H81.3754V0ZM74.6487 9.44768C76.4877 9.44768 77.7221 10.7326 77.7221 12.7733V13.3527C77.7221 15.4438 76.4877 16.6783 74.6487 16.6783C72.759 16.6783 71.4992 15.3682 71.4992 13.0756C71.4992 10.783 72.759 9.44768 74.6487 9.44768Z" fill="#333333"/>
<path d="M88.817 6.29846C87.2298 6.29846 85.9197 6.77715 84.8867 7.73453C83.879 8.66669 83.3752 9.75002 83.3752 10.9593L87.0533 11.1105C87.0533 10.1783 87.6834 9.39732 88.8673 9.39732C90.0012 9.39732 90.5552 10.0775 90.5552 11.4128V11.9167L88.2375 12.0426C84.7607 12.1938 83.0225 13.5039 83.0225 15.9981C83.0225 18.4923 84.6599 19.8527 87.3558 19.8527C88.7162 19.8527 89.8246 19.3993 90.6812 18.5175V19.5756H94.2337V11.5388C94.2337 8.11242 92.344 6.29846 88.817 6.29846ZM90.5552 14.8896C90.5552 16.2248 89.5979 17.0058 88.2124 17.0058C87.2047 17.0058 86.7006 16.6027 86.7006 15.8217C86.7006 14.9651 87.3307 14.5117 88.5902 14.4612L90.5552 14.3353V14.8896Z" fill="#333333"/>
<path d="M108.186 6.55042H104.004L101.585 10.531L99.1664 6.55042H94.9841L98.9899 13L94.9336 19.5756H99.1158L101.585 15.5194L104.079 19.5756H108.286L104.155 13L108.186 6.55042Z" fill="#333333"/>
</g>
<defs>
<clipPath id="clip0">
<rect width="108.304" height="26" fill="white"/>
</clipPath>
</defs>
</svg>
