<svg width="71" height="25" viewBox="0 0 71 25" fill="none" xmlns="http://www.w3.org/2000/svg">
<g clip-path="url(#clip0)">
<path d="M4.29 17.3471C4.58559 18.1315 4.99484 18.8022 5.51781 19.3593C6.04077 19.9163 6.66034 20.3426 7.3765 20.6382C8.09273 20.9338 8.87145 21.0816 9.71273 21.0816C10.5313 21.0816 11.2986 20.9281 12.0148 20.6211C12.7311 20.3141 13.3563 19.8821 13.8906 19.3251C14.4249 18.7681 14.8399 18.1031 15.1355 17.33C15.4311 16.557 15.5788 15.693 15.5788 14.738V0.00463867H19.1598V23.8781H15.6129V21.6613C14.8171 22.5025 13.8792 23.1505 12.7992 23.6053C11.7192 24.06 10.554 24.2874 9.30348 24.2874C8.03017 24.2874 6.84221 24.0657 5.73944 23.6223C4.63676 23.179 3.68175 22.5481 2.87466 21.7295C2.06757 20.911 1.43087 19.9277 0.964804 18.7795C0.498659 17.6313 0.265625 16.3524 0.265625 14.9426V0.00463867H3.84664V14.738C3.84664 15.693 3.9944 16.5626 4.29 17.3471Z" fill="#333333"/>
<path d="M25.3333 0.00402832V8.70079C26.129 7.90501 27.0499 7.27413 28.0958 6.80798C29.1416 6.34184 30.2785 6.10881 31.5062 6.10881C32.7796 6.10881 33.9731 6.3475 35.0873 6.82496C36.2014 7.30243 37.1676 7.95044 37.9862 8.76901C38.8047 9.58757 39.4527 10.5538 39.9302 11.6679C40.4077 12.7821 40.6464 13.9644 40.6464 15.2149C40.6464 16.4653 40.4077 17.642 39.9302 18.7447C39.4527 19.8474 38.8047 20.8081 37.9862 21.6265C37.1676 22.4451 36.2014 23.0931 35.0873 23.5705C33.9731 24.048 32.7795 24.2867 31.5062 24.2867C30.2784 24.2867 29.136 24.0537 28.0787 23.5875C27.0215 23.1215 26.0949 22.4905 25.2991 21.6947V23.8775H21.8887V0.00402832H25.3333ZM25.7254 17.5681C26.0324 18.2957 26.4587 18.9323 27.0044 19.478C27.5501 20.0237 28.1867 20.4557 28.9143 20.7741C29.6419 21.0924 30.4263 21.2515 31.2676 21.2515C32.0861 21.2515 32.8591 21.0924 33.5867 20.7741C34.3142 20.4557 34.9451 20.0238 35.4795 19.478C36.0138 18.9324 36.4401 18.2957 36.7584 17.5681C37.0767 16.8405 37.2359 16.0562 37.2359 15.2149C37.2359 14.3736 37.0767 13.5835 36.7584 12.8445C36.4401 12.1056 36.0138 11.4633 35.4795 10.9176C34.9452 10.372 34.3143 9.94565 33.5867 9.63873C32.859 9.33182 32.086 9.17825 31.2676 9.17825C30.4491 9.17825 29.676 9.33174 28.9485 9.63873C28.2209 9.94572 27.5843 10.372 27.0385 10.9176C26.4929 11.4633 26.0609 12.1056 25.7426 12.8445C25.4243 13.5835 25.2651 14.3736 25.2651 15.2149C25.265 16.0562 25.4185 16.8405 25.7254 17.5681Z" fill="#333333"/>
<path d="M42.5892 11.702C43.0439 10.6106 43.6692 9.65001 44.4649 8.82012C45.2606 7.99024 46.2043 7.33657 47.2957 6.8591C48.3871 6.38164 49.5694 6.14294 50.8426 6.14294C52.0931 6.14294 53.2527 6.37032 54.3214 6.82499C55.39 7.27974 56.3108 7.9107 57.0838 8.71787C57.8569 9.52496 58.4595 10.48 58.8914 11.5827C59.3234 12.6854 59.5394 13.8848 59.5394 15.1808V16.3063H45.3858C45.4996 17.0111 45.7269 17.6648 46.068 18.2672C46.4091 18.8697 46.8353 19.3927 47.3469 19.8361C47.8584 20.2795 48.4382 20.6262 49.0862 20.8763C49.7343 21.1264 50.422 21.2515 51.1496 21.2515C53.2187 21.2515 54.8899 20.3988 56.1631 18.6935L58.6527 20.5352C57.7887 21.6948 56.7202 22.6042 55.4469 23.2636C54.1736 23.9229 52.7412 24.2526 51.1497 24.2526C49.8536 24.2526 48.643 24.0252 47.5175 23.5705C46.392 23.1158 45.4144 22.4791 44.5845 21.6606C43.7546 20.842 43.1009 19.8814 42.6235 18.7787C42.146 17.676 41.9072 16.4766 41.9072 15.1807C41.9071 13.9529 42.1345 12.7933 42.5892 11.702ZM47.381 10.3548C46.4146 11.1619 45.7724 12.2363 45.4541 13.5777H56.0608C55.7652 12.2363 55.1342 11.1619 54.1679 10.3548C53.2016 9.54768 52.0704 9.14409 50.7745 9.14409C49.4784 9.14409 48.3473 9.54768 47.381 10.3548Z" fill="#333333"/>
<path d="M65.9853 10.747C65.2577 11.5428 64.8939 12.6227 64.8939 13.987V23.8775H61.4492V6.48393H64.8597V8.63255C65.2917 7.92771 65.8545 7.37064 66.5479 6.96139C67.2414 6.55207 68.0656 6.34741 69.0206 6.34741H70.2142V9.5533H68.7818C67.645 9.55337 66.7128 9.95122 65.9853 10.747Z" fill="#333333"/>
</g>
<defs>
<clipPath id="clip0">
<rect width="69.9485" height="24.2827" fill="white" transform="translate(0.265625 0.00463867)"/>
</clipPath>
</defs>
</svg>
