<svg xmlns="http://www.w3.org/2000/svg" xmlns:xlink="http://www.w3.org/1999/xlink" width="28" height="20" viewBox="0 0 28 20">
    <defs>
        <rect id="a" width="28" height="20" rx="2"/>
    </defs>
    <g fill="none" fill-rule="evenodd">
        <mask id="b" fill="#fff">
            <use xlink:href="#a"/>
        </mask>
        <use fill="#FFF" xlink:href="#a"/>
        <path fill="#262626" d="M0 0h28v2.667H0zM0 10.667h28v2.667H0z" mask="url(#b)"/>
        <path fill="#ED1623" d="M0 6.667h28v4H0z" mask="url(#b)"/>
        <path fill="#FEE044" d="M0 2.667h28v4H0z" mask="url(#b)"/>
        <path fill="#ED1623" d="M0 17.333h28V20H0z" mask="url(#b)"/>
        <path fill="#FEE044" d="M0 13.333h28v4H0z" mask="url(#b)"/>
        <circle cx="14" cy="10" r="4.667" fill="#FFF" mask="url(#b)"/>
        <path fill="#262626" d="M12.907 7.574a.337.337 0 0 1 0-.481l.186-.186c.133-.133.337-.361.464-.496l.15-.119c.162.023.409-.045.59-.016l.158.123c.117.148.145.4.064.564l-.371.741c-.082.164-.148.45-.148.63 0 .183.133.399.296.48l.741.371c.164.082.401.253.529.38l.868.87a.488.488 0 0 1 .085.528l-.371.741c-.082.164-.252.192-.389.055l-.185-.185a.337.337 0 0 0-.481 0l-.186.185a.947.947 0 0 0-.24.574c0 .184.104.438.24.574l.186.186c.133.133.083.24-.09.24h-1.34c-.182 0-.226-.104-.089-.24l.185-.186a.947.947 0 0 0 .241-.574.337.337 0 0 0-.333-.333.922.922 0 0 0-.574.24l-.186.186a.337.337 0 0 1-.481 0l-.185-.185a.337.337 0 0 1 0-.482l.185-.185a.92.92 0 0 1 .577-.24h.66c.186 0 .23-.108.108-.23l-1.542-1.541a.327.327 0 0 1 .003-.462l.87-.869a.331.331 0 0 0-.01-.473l-.185-.185z" mask="url(#b)"/>
    </g>
</svg>
