<svg width="113" height="23" viewBox="0 0 113 23" fill="none" xmlns="http://www.w3.org/2000/svg">
<g clip-path="url(#clip0)">
<path d="M45.3395 20.2274C46.3006 20.4677 47.1739 20.7416 48.0713 20.9073C49.1789 21.1116 50.2949 21.1476 51.3881 20.7572C52.4392 20.386 53.0266 19.6328 53.1744 18.5576C53.2693 17.8693 53.2645 17.1677 53.3137 16.3256C53.0374 16.5082 52.8609 16.6127 52.6987 16.7352C51.4145 17.6963 49.9645 18.0254 48.3932 17.8501C46.4976 17.6386 45.2266 16.5731 44.5491 14.836C43.7833 12.9188 43.711 10.7943 44.3449 8.82952C45.414 5.43346 49.0479 3.81892 52.3251 5.21603C52.617 5.33616 52.9029 5.47911 53.2597 5.64129C53.2957 5.13914 53.5948 5.04064 54.0225 5.08028C54.4766 5.11872 54.9355 5.08869 55.4244 5.08869C55.4364 5.2821 55.4557 5.43707 55.4557 5.59203C55.4557 9.29442 55.4677 12.9956 55.446 16.698C55.4402 17.4186 55.3658 18.137 55.2238 18.8435C54.7553 21.1909 53.1816 22.5976 50.7922 22.9051C49.078 23.1261 47.3986 22.9459 45.7384 22.5327C45.6436 22.4935 45.5597 22.4319 45.4938 22.3533C45.4279 22.2746 45.382 22.1812 45.36 22.081C45.3119 21.4852 45.3395 20.8857 45.3395 20.2274ZM53.2681 11.0063V9.2656C53.2681 7.13209 53.2381 7.10326 51.1058 6.74288C51.0661 6.73687 51.0277 6.72605 50.9856 6.72125C48.5482 6.37768 46.7367 7.55495 46.3919 9.90588C46.239 11.0716 46.2702 12.2541 46.4844 13.4101C46.7799 15.1027 47.825 15.8247 49.5441 15.8427C50.8175 15.8571 51.9371 15.421 52.9498 14.6954C53.0403 14.6158 53.114 14.5189 53.1666 14.4104C53.2192 14.3019 53.2497 14.184 53.2561 14.0636C53.2909 13.0521 53.2729 12.0274 53.2729 11.0099L53.2681 11.0063Z" fill="#333333"/>
<path d="M4.69113 11.082L8.39112 9.39177C8.39112 10.724 8.39713 11.9794 8.38151 13.2359C8.37305 13.3087 8.34864 13.3788 8.31002 13.4411C8.2714 13.5033 8.21952 13.5564 8.15807 13.5963C5.46957 15.0002 2.77827 16.3953 0.0841683 17.7816C0.0733566 17.7816 0.0493307 17.7648 0.00488281 17.742V0.0408936H4.69113V11.082Z" fill="#333333"/>
<path d="M9.08147 9.37123L12.9376 10.9774V0.0335693H17.6347V17.7911C17.4185 17.6962 17.2551 17.6349 17.1013 17.5509C14.5714 16.2619 12.0451 14.9669 9.51033 13.6875C9.2076 13.5349 9.06825 13.3715 9.07546 13.0112C9.09348 11.8375 9.08147 10.659 9.08147 9.37123Z" fill="#333333"/>
<path d="M81.0243 18.0638H78.904C78.8944 17.8716 78.8788 17.7035 78.8788 17.5245V11.0375C78.8788 10.4585 78.8476 9.87702 78.7911 9.3016C78.5977 7.34109 77.6559 6.58548 75.6918 6.82213C74.5037 6.96509 73.4946 7.5357 72.5612 8.23966C72.4182 8.34778 72.3738 8.65771 72.3738 8.87394C72.3618 11.715 72.3654 14.5573 72.3654 17.4031V18.041H70.1826V0.00598145H72.3281V6.49298C72.7882 6.18905 73.1582 5.93678 73.5366 5.69532C74.9962 4.76672 76.5747 4.4724 78.2445 4.9361C80.1125 5.45506 80.9342 6.89541 80.9943 8.66972C81.1 11.7847 81.0243 14.9044 81.0243 18.0638Z" fill="#333333"/>
<path d="M30.211 18.0603H28.0486V17.3948C28.0198 14.6942 27.997 11.9889 27.9513 9.29322C27.9415 8.93336 27.8746 8.57735 27.7531 8.23848C27.3435 7.07683 26.1999 6.57829 24.661 6.84978C23.5702 7.04319 22.626 7.55975 21.7587 8.21446C21.5989 8.33459 21.5184 8.65293 21.5184 8.87997C21.5028 11.7018 21.5076 14.5261 21.5076 17.3455V18.0447H19.3633V0H21.4956V6.4942C21.9677 6.18186 22.3545 5.91518 22.7509 5.66531C23.7685 5.01315 24.9623 4.69056 26.1698 4.74151C28.3069 4.81719 29.7016 5.98485 30.0908 8.08231C30.1755 8.53478 30.2197 8.99388 30.223 9.45419C30.235 12.1955 30.2302 14.9381 30.2302 17.6795C30.229 17.7948 30.2182 17.9101 30.211 18.0603ZM43.5357 11.6249C43.5021 12.9259 43.2955 14.1813 42.7129 15.3489C41.5476 17.6614 39.2808 18.7342 36.4109 18.3522C34.0431 18.0326 32.1991 16.2019 31.6982 13.6311C31.3767 12.0965 31.4249 10.5076 31.8387 8.9953C32.6544 6.11219 34.9128 4.58775 38.0578 4.75953C40.7355 4.90489 42.8222 6.84017 43.3207 9.66682C43.4324 10.3083 43.4661 10.9702 43.5357 11.6249ZM33.6611 11.5192L33.7392 11.5408C33.7872 12.0778 33.8089 12.622 33.8929 13.1518C33.9575 13.5459 34.0638 13.9321 34.2101 14.3038C34.7663 15.7358 35.9544 16.5226 37.5173 16.5202C39.0597 16.5202 40.2995 15.7177 40.8016 14.275C41.4207 12.5229 41.4207 10.6116 40.8016 8.85955C40.2971 7.38917 39.1318 6.65517 37.5136 6.65517C35.8523 6.65517 34.6882 7.38436 34.1945 8.89198C33.9194 9.7365 33.8329 10.6423 33.6611 11.5192ZM94.4202 11.8436C94.2556 12.6364 94.1487 13.7032 93.8087 14.6894C92.9738 17.104 90.9256 18.4495 88.314 18.4387C85.7024 18.4279 83.6818 17.0572 82.8361 14.6498C82.1432 12.7099 82.1288 10.5924 82.7953 8.64332C83.6974 5.92719 85.9066 4.56732 88.9615 4.75833C91.5359 4.9193 93.5781 6.77771 94.1271 9.49383C94.2652 10.1774 94.3025 10.8801 94.4202 11.8436ZM84.5035 11.6105C84.6729 12.4815 84.7558 13.3872 85.0345 14.2281C85.5342 15.7382 86.7836 16.5322 88.3981 16.5202C89.9478 16.5082 91.1851 15.6637 91.6788 14.1801C92.2412 12.4956 92.2471 10.675 91.6957 8.98689C91.2151 7.45163 90.0139 6.66118 88.3717 6.65638C86.667 6.65638 85.4886 7.4168 84.9984 8.98809C84.7402 9.81698 84.6681 10.7035 84.5035 11.6105ZM68.9071 11.9168C68.7005 12.7878 68.5623 13.959 68.1443 15.0138C67.2361 17.3203 65.0738 18.5552 62.4874 18.4351C59.9166 18.3149 57.9585 16.8386 57.2017 14.3783C56.6342 12.5694 56.6342 10.63 57.2017 8.82111C58.0498 6.05813 60.2169 4.62859 63.2442 4.74992C65.8762 4.85564 67.9365 6.60712 68.5479 9.31484C68.7125 10.0669 68.7617 10.8501 68.9071 11.9168ZM66.5946 11.8039C66.5057 10.963 66.4625 10.3624 66.3712 9.76893C66.3129 9.43433 66.2178 9.10718 66.0877 8.79348C65.5279 7.37715 64.4058 6.65397 62.8057 6.65758C61.2056 6.66118 60.0488 7.35313 59.5286 8.79108C58.863 10.5729 58.863 12.5352 59.5286 14.317C60.0668 15.7898 61.2921 16.549 62.8922 16.5274C64.4143 16.5058 65.6624 15.6721 66.1261 14.2149C66.3952 13.3632 66.4721 12.4586 66.5946 11.8039ZM94.8467 14.8648C95.7657 15.3069 96.5837 15.7682 97.4511 16.1034C98.7317 16.5995 100.064 16.6932 101.394 16.2751C102.302 15.9904 102.721 15.4258 102.724 14.5717C102.724 13.8041 102.474 13.3272 101.738 13.1025C100.709 12.7878 99.6458 12.5908 98.6007 12.3253C98.0986 12.198 97.5976 12.0538 97.1099 11.8784C95.7512 11.3895 94.9656 10.4272 94.8887 8.97487C94.8094 7.48767 95.4269 6.31281 96.7183 5.57161C98.5647 4.51086 100.553 4.56612 102.549 5.01901C104.498 5.46109 104.493 5.48391 104.487 7.45884V8.05949L104.025 7.7928C102.428 6.85939 100.745 6.29719 98.8722 6.68881C98.1298 6.84378 97.4463 7.15011 97.2012 7.97179C96.9477 8.8127 97.3057 9.61877 98.2331 9.9263C99.3143 10.2867 100.436 10.4825 101.54 10.7528C101.831 10.8237 102.125 10.8885 102.409 10.981C103.73 11.4099 104.731 12.1715 104.946 13.6407C105.179 15.2444 104.586 16.513 103.239 17.3972C101.751 18.3714 100.065 18.4915 98.3785 18.2705C97.3213 18.1323 96.2978 17.7323 95.2551 17.4488C94.9464 17.3647 94.8154 17.1833 94.8322 16.8386C94.8659 16.1899 94.8467 15.5327 94.8467 14.8648ZM106.11 6.93388H104.653V5.11151H106.11V1.37068H108.302V5.07307H112.838V6.90384H108.302V13.7873C108.302 16.2391 109.565 16.6451 111.578 16.3556C111.988 16.2968 112.383 16.1418 112.83 16.0181V17.9774C111.528 18.3089 110.212 18.5108 108.866 18.2176C107.227 17.8573 106.223 16.6367 106.159 14.7159C106.081 12.3769 106.117 10.0308 106.105 7.69189C106.109 7.44923 106.11 7.21258 106.11 6.93388Z" fill="#333333"/>
</g>
<defs>
<clipPath id="clip0">
<rect width="112.839" height="23" fill="white"/>
</clipPath>
</defs>
</svg>
